<svg width="25" height="24" viewBox="0 0 25 24" fill="none" xmlns="http://www.w3.org/2000/svg">
<path d="M21.6759 17.1449C21.3432 17.9135 20.9494 18.6211 20.4931 19.2715C19.8711 20.1583 19.3619 20.7721 18.9694 21.113C18.3611 21.6724 17.7092 21.959 17.0112 21.9753C16.5101 21.9753 15.9058 21.8327 15.2024 21.5434C14.4967 21.2555 13.8481 21.113 13.2551 21.113C12.6331 21.113 11.9661 21.2555 11.2526 21.5434C10.538 21.8327 9.96235 21.9834 9.52223 21.9984C8.85288 22.0269 8.18571 21.7322 7.51975 21.113C7.09471 20.7422 6.56306 20.1067 5.92616 19.2063C5.24283 18.2449 4.68103 17.13 4.24091 15.8589C3.76955 14.486 3.53326 13.1565 3.53326 11.8694C3.53326 10.3951 3.85185 9.12345 4.48996 8.05784C4.99146 7.20191 5.65864 6.52672 6.49366 6.03105C7.32869 5.53539 8.23093 5.2828 9.20256 5.26664C9.73421 5.26664 10.4314 5.43109 11.2978 5.75429C12.1617 6.07858 12.7165 6.24303 12.9597 6.24303C13.1415 6.24303 13.7578 6.05074 14.8025 5.66738C15.7904 5.31186 16.6242 5.16466 17.3073 5.22264C19.1582 5.37202 20.5488 6.10167 21.4736 7.41619C19.8182 8.4192 18.9993 9.82403 19.0156 11.6262C19.0305 13.03 19.5398 14.1981 20.5406 15.1256C20.9942 15.5561 21.5007 15.8888 22.0643 16.1251C21.9421 16.4795 21.813 16.819 21.6759 17.1449ZM17.4308 0.440369C17.4308 1.54062 17.0289 2.56792 16.2277 3.51878C15.2608 4.64917 14.0913 5.30236 12.8231 5.19929C12.8069 5.06729 12.7975 4.92837 12.7975 4.78239C12.7975 3.72615 13.2574 2.59576 14.0739 1.67152C14.4816 1.20356 15.0001 0.814453 15.6288 0.504058C16.2562 0.198295 16.8496 0.0292007 17.4078 0.000244141C17.4241 0.147331 17.4308 0.294426 17.4308 0.440355V0.440369Z" fill="black"/>
</svg>
