<svg width="25" height="24" viewBox="0 0 25 24" fill="none" xmlns="http://www.w3.org/2000/svg">
<g clip-path="url(#clip0_359_26478)">
<path d="M23.9327 12.2765C23.9327 11.4608 23.8666 10.6406 23.7255 9.83813H12.4067V14.4591H18.8884C18.6194 15.9495 17.7552 17.2679 16.4897 18.1056V21.104H20.3567C22.6275 19.014 23.9327 15.9274 23.9327 12.2765Z" fill="#4285F4"/>
<path d="M12.4067 24.0008C15.6431 24.0008 18.3725 22.9382 20.3611 21.1039L16.4941 18.1055C15.4182 18.8375 14.0293 19.252 12.4111 19.252C9.28045 19.252 6.62603 17.1399 5.67361 14.3003H1.68317V17.3912C3.72028 21.4434 7.86946 24.0008 12.4067 24.0008Z" fill="#34A853"/>
<path d="M5.66922 14.3002C5.16655 12.8099 5.16655 11.196 5.66922 9.70569V6.61475H1.68318C-0.0188234 10.0055 -0.0188234 14.0004 1.68318 17.3912L5.66922 14.3002Z" fill="#FBBC04"/>
<path d="M12.4067 4.74966C14.1175 4.7232 15.771 5.36697 17.01 6.54867L20.4361 3.12262C18.2667 1.0855 15.3874 -0.034466 12.4067 0.000808666C7.86946 0.000808666 3.72028 2.55822 1.68317 6.61481L5.6692 9.70575C6.61721 6.86173 9.27604 4.74966 12.4067 4.74966Z" fill="#EA4335"/>
</g>
<defs>
<clipPath id="clip0_359_26478">
<rect width="24" height="24" fill="white" transform="translate(0.166687)"/>
</clipPath>
</defs>
</svg>
