<svg width="19" height="20" viewBox="0 0 19 20" fill="none" xmlns="http://www.w3.org/2000/svg">
<path d="M14.5 8V6C14.5 3.23858 12.2614 1 9.5 1C6.73858 1 4.5 3.23858 4.5 6V8M9.5 12.5V14.5M6.3 19H12.7C14.3802 19 15.2202 19 15.862 18.673C16.4265 18.3854 16.8854 17.9265 17.173 17.362C17.5 16.7202 17.5 15.8802 17.5 14.2V12.8C17.5 11.1198 17.5 10.2798 17.173 9.63803C16.8854 9.07354 16.4265 8.6146 15.862 8.32698C15.2202 8 14.3802 8 12.7 8H6.3C4.61984 8 3.77976 8 3.13803 8.32698C2.57354 8.6146 2.1146 9.07354 1.82698 9.63803C1.5 10.2798 1.5 11.1198 1.5 12.8V14.2C1.5 15.8802 1.5 16.7202 1.82698 17.362C2.1146 17.9265 2.57354 18.3854 3.13803 18.673C3.77976 19 4.61984 19 6.3 19Z" stroke="#B0ADBC" stroke-width="2" stroke-linecap="round" stroke-linejoin="round"/>
</svg>
