<svg width="39" height="38" viewBox="0 0 39 38" fill="none" xmlns="http://www.w3.org/2000/svg">
<rect x="0.0421143" y="0.279541" width="38.006" height="36.8882" rx="6.70695" fill="#2C374B"/>
<path d="M19.1984 33.5921C27.6484 33.5921 34.3547 26.7517 34.3547 18.4358C34.3547 9.98587 27.5143 3.27954 19.1984 3.27954C10.7484 3.27954 4.04211 10.12 4.04211 18.4358C4.04211 26.7517 10.8826 33.5921 19.1984 33.5921Z" fill="#2C374B"/>
<path fill-rule="evenodd" clip-rule="evenodd" d="M27.5142 12.9366C27.38 12.8024 20.8078 8.91277 20.0031 8.64452C19.7348 8.51039 19.0642 8.37626 18.6618 8.51039C18.2594 8.64452 11.2849 12.6683 11.0166 12.9366C10.8825 13.0707 10.7484 13.3389 10.6142 13.4731C10.4801 13.7413 10.4801 13.8755 10.4801 18.5699V23.3984L11.419 23.9349C11.9555 24.2032 12.3579 24.4714 12.3579 24.4714C12.492 24.4714 18.7959 14.412 18.7959 14.2778C18.7959 14.1437 17.3206 14.1437 16.9182 14.2778C16.3817 14.412 15.9793 14.6802 15.711 14.9485C15.5769 15.0826 14.7722 16.4239 13.6991 17.8993C12.7603 19.3746 11.9555 20.7159 11.9555 20.7159C11.9555 20.7159 11.9555 19.3746 11.9555 17.4969V14.1437L12.0896 14.0096C12.3579 13.7413 19.1983 9.85166 19.4666 9.85166C19.6007 9.85166 19.7348 9.85166 21.3444 10.7905C21.8809 11.0588 23.3562 11.8636 24.5634 12.6683C25.7705 13.3389 26.8435 14.0096 26.9777 14.1437L27.1118 14.2778V21.2524L23.7586 16.0215C23.6245 15.7532 23.4904 15.485 23.3562 15.3508C23.3562 15.3508 23.2221 15.6191 22.4174 16.9604C22.2832 17.0945 22.1491 17.3627 22.1491 17.4969L22.015 17.7651L22.1491 17.8993L22.2832 18.0334C22.2832 18.0334 22.2832 18.1675 22.4174 18.1675L22.6856 18.5699C22.6856 18.5699 22.6856 18.704 22.8197 18.704C22.9539 18.8381 23.088 19.1064 23.088 19.2405C23.088 19.2405 23.088 19.2405 23.088 19.3746L25.9047 23.9349L25.6364 24.0691C25.5023 24.2032 25.3681 24.2032 25.234 24.2032L21.7467 18.8381L21.6126 18.704L21.3444 19.2405L20.0031 21.3865L22.6856 25.6786C22.2832 25.9468 20.0031 27.5564 19.869 27.5564C19.7348 27.5564 16.6499 25.5445 16.7841 25.4103C16.7841 25.4103 17.7229 23.8008 18.7959 21.923C19.7348 20.3135 20.942 18.3016 21.7467 16.9604C22.6856 15.3508 23.088 14.5461 23.088 14.5461C23.088 14.5461 22.4174 14.5461 21.6126 14.5461H20.2713L17.1864 19.6429C16.1134 21.5207 15.0404 23.2643 14.5039 24.2032C13.565 24.3373 13.2968 24.6056 13.2968 24.6056L13.1626 24.8738L15.5769 26.2151C16.9182 27.0199 18.1253 27.6905 18.3936 27.8246C18.7959 28.0929 19.4666 28.0929 19.7348 28.0929C20.0031 27.9587 26.9777 23.9349 27.38 23.6667C27.5142 23.5326 27.6483 23.3984 27.7824 23.1302L27.9166 22.7278V18.3016V13.8755L27.7824 13.6072C27.7824 13.3389 27.5142 13.0707 27.5142 12.9366Z" fill="white"/>
<path d="M26.8432 21.1183L22.8194 14.9485L21.344 17.3628L25.2337 23.6667L26.9773 22.862L26.8432 21.1183Z" fill="#24A2EE"/>
<path d="M24.9657 24.4713L20.9419 18.3015L19.1982 20.984L22.4173 26.0809L24.4292 25.2761L24.9657 24.4713Z" fill="#24A2EE"/>
<path fill-rule="evenodd" clip-rule="evenodd" d="M11.8211 14.1438L19.1981 9.85177L26.575 14.1438V22.7279L19.1981 27.02L13.6989 23.9351L13.0282 25.1422L19.0639 28.6295C19.1981 28.7636 19.3322 28.7636 19.4663 28.6295L27.9163 23.8009C28.0504 23.6668 28.1845 23.5327 28.1845 23.3986V13.7414C28.1845 13.6073 28.0504 13.4732 27.9163 13.3391L19.4663 8.51051C19.3322 8.37638 19.1981 8.37638 19.0639 8.51051L10.614 13.2049C10.4798 13.3391 10.3457 13.4732 10.3457 13.6073V23.2644C10.3457 23.3986 10.4798 23.5327 10.614 23.6668L12.3576 24.6057L13.1624 23.3986L11.9552 22.7279V14.1438H11.8211Z" fill="#98BCDC"/>
<path d="M22.4171 14.1438H19.6004L13.0282 24.8739L15.3084 26.2152L22.4171 14.1438Z" fill="white"/>
<path d="M15.3084 15.2166C15.979 14.1436 17.8568 14.1436 18.6615 14.2777L12.2235 24.6055C11.9552 24.4713 11.4187 24.2031 11.0163 23.9348C10.4798 23.6666 10.3457 23.6666 10.3457 23.2642V22.7277C11.8211 20.5817 14.6378 16.2896 15.3084 15.2166Z" fill="white"/>
</svg>
