<svg width="21" height="17" viewBox="0 0 21 17" fill="none" xmlns="http://www.w3.org/2000/svg">
<path d="M20.9697 2.21015C20.2342 2.53606 19.4441 2.75626 18.6135 2.8558C19.4706 2.34297 20.1118 1.53585 20.4174 0.585031C19.6122 1.06331 18.731 1.39997 17.812 1.58036C17.194 0.920506 16.3754 0.483142 15.4834 0.336175C14.5913 0.189207 13.6757 0.340859 12.8787 0.767584C12.0817 1.19431 11.4478 1.87223 11.0756 2.69611C10.7033 3.51998 10.6135 4.4437 10.82 5.32387C9.18842 5.24195 7.59232 4.81788 6.13525 4.07918C4.67819 3.34048 3.39273 2.30366 2.36231 1.03601C2.00998 1.64378 1.80739 2.34844 1.80739 3.0989C1.807 3.77449 1.97337 4.43973 2.29174 5.0356C2.61011 5.63147 3.07064 6.13954 3.63246 6.51474C2.98089 6.49401 2.3437 6.31795 1.77392 6.00122V6.05407C1.77385 7.00161 2.10161 7.91999 2.70159 8.65338C3.30156 9.38677 4.13679 9.89 5.06556 10.0777C4.46112 10.2413 3.82742 10.2654 3.21231 10.1481C3.47435 10.9634 3.98478 11.6764 4.67216 12.1872C5.35953 12.698 6.18942 12.981 7.04565 12.9967C5.59215 14.1378 3.79707 14.7567 1.9492 14.754C1.62187 14.7541 1.29482 14.7349 0.969727 14.6967C2.84542 15.9027 5.02887 16.5428 7.25881 16.5403C14.8075 16.5403 18.9341 10.2882 18.9341 4.86584C18.9341 4.68967 18.9297 4.51175 18.9218 4.33558C19.7245 3.7551 20.4174 3.03627 20.968 2.21279L20.9697 2.21015Z" fill="white"/>
</svg>
