<svg width="39" height="38" viewBox="0 0 39 38" fill="none" xmlns="http://www.w3.org/2000/svg">
<rect x="0.0421143" y="0.391357" width="38.006" height="36.8882" rx="6.70695" fill="#FF0420"/>
<path d="M19.1984 33.704C27.569 33.704 34.3547 26.9182 34.3547 18.5477C34.3547 10.1771 27.569 3.39136 19.1984 3.39136C10.8278 3.39136 4.04211 10.1771 4.04211 18.5477C4.04211 26.9182 10.8278 33.704 19.1984 33.704Z" fill="#FF0420"/>
<path d="M14.7799 22.5735C13.8766 22.5735 13.1369 22.3613 12.561 21.937C11.9911 21.5065 11.7062 20.8881 11.7062 20.0939C11.7062 19.9242 11.7244 19.7241 11.7607 19.4816C11.8577 18.936 11.9972 18.2813 12.1791 17.5113C12.6944 15.4258 14.0281 14.3831 16.1743 14.3831C16.7563 14.3831 17.2837 14.4801 17.7444 14.6801C18.2052 14.8681 18.5689 15.1591 18.8357 15.5471C19.1024 15.929 19.2358 16.3837 19.2358 16.9111C19.2358 17.0688 19.2176 17.2688 19.1813 17.5113C19.0661 18.1843 18.9327 18.8451 18.769 19.4816C18.5023 20.5183 18.0476 21.3004 17.3928 21.8157C16.7441 22.325 15.8711 22.5735 14.7799 22.5735ZM14.9436 20.9366C15.3679 20.9366 15.7256 20.8093 16.0227 20.5608C16.3258 20.3122 16.5441 19.9303 16.6714 19.4089C16.8472 18.6935 16.9806 18.0751 17.0715 17.5416C17.1018 17.384 17.12 17.2203 17.12 17.0506C17.12 16.3594 16.7623 16.0139 16.0409 16.0139C15.6165 16.0139 15.2527 16.1412 14.9496 16.3897C14.6526 16.6383 14.4404 17.0203 14.3131 17.5416C14.1736 18.0509 14.0402 18.6693 13.9008 19.4089C13.8705 19.5604 13.8523 19.7181 13.8523 19.8878C13.8462 20.5911 14.2161 20.9366 14.9436 20.9366Z" fill="white"/>
<path d="M19.7614 22.4644C19.6765 22.4644 19.6159 22.4402 19.5674 22.3856C19.531 22.325 19.5189 22.2583 19.531 22.1795L21.1012 14.7832C21.1134 14.6984 21.1558 14.6317 21.2285 14.5771C21.2952 14.5225 21.368 14.4983 21.4468 14.4983H24.472C25.3147 14.4983 25.9876 14.6741 26.4969 15.0197C27.0122 15.3713 27.2729 15.8745 27.2729 16.5353C27.2729 16.7232 27.2486 16.9233 27.2062 17.1294C27.0182 18.0024 26.6363 18.6451 26.0543 19.0634C25.4844 19.4817 24.7024 19.6878 23.7081 19.6878H22.1743L21.6529 22.1795C21.6347 22.2644 21.5984 22.3311 21.5256 22.3856C21.4589 22.4402 21.3862 22.4644 21.3074 22.4644H19.7614ZM23.7869 18.1176C24.1082 18.1176 24.3811 18.0327 24.6175 17.8569C24.86 17.6811 25.0176 17.4325 25.0964 17.1052C25.1207 16.9779 25.1328 16.8627 25.1328 16.7657C25.1328 16.5474 25.0661 16.3777 24.9388 16.2625C24.8115 16.1412 24.5872 16.0806 24.278 16.0806H22.9139L22.4835 18.1176H23.7869Z" fill="white"/>
</svg>
