<svg width="20" height="20" viewBox="0 0 20 20" fill="none" xmlns="http://www.w3.org/2000/svg">
<path d="M5.55841 9.39167C6.20436 9.39167 6.796 9.23611 7.33333 8.925C7.87067 8.60833 8.29939 8.19167 8.61951 7.675C8.93962 7.15278 9.09968 6.575 9.09968 5.94167C9.09968 5.31389 8.93962 4.73889 8.61951 4.21667C8.29939 3.69444 7.87067 3.27778 7.33333 2.96667C6.796 2.65556 6.20436 2.5 5.55841 2.5C4.90104 2.5 4.30368 2.65556 3.76635 2.96667C3.22901 3.27778 2.80029 3.69444 2.48017 4.21667C2.16006 4.73889 2 5.31389 2 5.94167C2 6.575 2.16006 7.15278 2.48017 7.675C2.80029 8.19167 3.22901 8.60833 3.76635 8.925C4.30368 9.23611 4.90104 9.39167 5.55841 9.39167ZM5.54984 8.04167C5.14398 8.04167 4.77528 7.95 4.44373 7.76667C4.1179 7.57778 3.85781 7.325 3.66345 7.00833C3.47481 6.69167 3.38049 6.33611 3.38049 5.94167C3.38049 5.55278 3.47481 5.19722 3.66345 4.875C3.85781 4.55278 4.1179 4.29722 4.44373 4.10833C4.77528 3.91389 5.14398 3.81667 5.54984 3.81667C5.9557 3.81667 6.32154 3.91389 6.64737 4.10833C6.97321 4.29722 7.2333 4.55278 7.42765 4.875C7.62201 5.19722 7.71919 5.55278 7.71919 5.94167C7.71919 6.33611 7.62201 6.69167 7.42765 7.00833C7.2333 7.325 6.97321 7.57778 6.64737 7.76667C6.32154 7.95 5.9557 8.04167 5.54984 8.04167ZM14.4587 9.39167C15.1047 9.39167 15.6963 9.23611 16.2337 8.925C16.771 8.60833 17.1997 8.19167 17.5198 7.675C17.8399 7.15278 18 6.575 18 5.94167C18 5.31389 17.8399 4.73889 17.5198 4.21667C17.1997 3.69444 16.771 3.27778 16.2337 2.96667C15.6963 2.65556 15.1047 2.5 14.4587 2.5C13.8071 2.5 13.2126 2.65556 12.6752 2.96667C12.1379 3.27778 11.7092 3.69444 11.3891 4.21667C11.069 4.73889 10.9089 5.31389 10.9089 5.94167C10.9089 6.575 11.069 7.15278 11.3891 7.675C11.7092 8.19167 12.1379 8.60833 12.6752 8.925C13.2126 9.23611 13.8071 9.39167 14.4587 9.39167ZM14.4587 8.04167C14.0472 8.04167 13.6756 7.95 13.3441 7.76667C13.0182 7.57778 12.7581 7.325 12.5638 7.00833C12.3751 6.69167 12.2808 6.33611 12.2808 5.94167C12.2808 5.55278 12.3751 5.19722 12.5638 4.875C12.7581 4.55278 13.0182 4.29722 13.3441 4.10833C13.6756 3.91389 14.0472 3.81667 14.4587 3.81667C14.8646 3.81667 15.2304 3.91389 15.5563 4.10833C15.8821 4.29722 16.1422 4.55278 16.3365 4.875C16.5309 5.19722 16.6281 5.55278 16.6281 5.94167C16.6281 6.33611 16.5309 6.69167 16.3365 7.00833C16.1422 7.325 15.8821 7.57778 15.5563 7.76667C15.2304 7.95 14.8646 8.04167 14.4587 8.04167ZM5.55841 17.5C6.20436 17.5 6.796 17.3444 7.33333 17.0333C7.87067 16.7222 8.29939 16.3056 8.61951 15.7833C8.93962 15.2611 9.09968 14.6833 9.09968 14.05C9.09968 13.4278 8.93962 12.8556 8.61951 12.3333C8.29939 11.8111 7.87067 11.3944 7.33333 11.0833C6.796 10.7722 6.20436 10.6167 5.55841 10.6167C4.90104 10.6167 4.30368 10.7722 3.76635 11.0833C3.22901 11.3944 2.80029 11.8111 2.48017 12.3333C2.16006 12.8556 2 13.4278 2 14.05C2 14.6833 2.16006 15.2611 2.48017 15.7833C2.80029 16.3056 3.22901 16.7222 3.76635 17.0333C4.30368 17.3444 4.90104 17.5 5.55841 17.5ZM5.54984 16.1583C5.14398 16.1583 4.77528 16.0639 4.44373 15.875C4.1179 15.6917 3.85781 15.4417 3.66345 15.125C3.47481 14.8083 3.38049 14.45 3.38049 14.05C3.38049 13.6611 3.47481 13.3083 3.66345 12.9917C3.85781 12.6694 4.1179 12.4139 4.44373 12.225C4.77528 12.0306 5.14398 11.9333 5.54984 11.9333C5.9557 11.9333 6.32154 12.0306 6.64737 12.225C6.97321 12.4139 7.2333 12.6694 7.42765 12.9917C7.62201 13.3083 7.71919 13.6611 7.71919 14.05C7.71919 14.45 7.62201 14.8083 7.42765 15.125C7.2333 15.4417 6.97321 15.6917 6.64737 15.875C6.32154 16.0639 5.9557 16.1583 5.54984 16.1583ZM14.4587 17.5C15.1047 17.5 15.6963 17.3444 16.2337 17.0333C16.771 16.7222 17.1997 16.3056 17.5198 15.7833C17.8399 15.2611 18 14.6833 18 14.05C18 13.4278 17.8399 12.8556 17.5198 12.3333C17.1997 11.8111 16.771 11.3944 16.2337 11.0833C15.6963 10.7722 15.1047 10.6167 14.4587 10.6167C13.8071 10.6167 13.2126 10.7722 12.6752 11.0833C12.1379 11.3944 11.7092 11.8111 11.3891 12.3333C11.069 12.8556 10.9089 13.4278 10.9089 14.05C10.9089 14.6833 11.069 15.2611 11.3891 15.7833C11.7092 16.3056 12.1379 16.7222 12.6752 17.0333C13.2126 17.3444 13.8071 17.5 14.4587 17.5ZM14.4587 16.1583C14.0472 16.1583 13.6756 16.0639 13.3441 15.875C13.0182 15.6917 12.7581 15.4417 12.5638 15.125C12.3751 14.8083 12.2808 14.45 12.2808 14.05C12.2808 13.6611 12.3751 13.3083 12.5638 12.9917C12.7581 12.6694 13.0182 12.4139 13.3441 12.225C13.6756 12.0306 14.0472 11.9333 14.4587 11.9333C14.8646 11.9333 15.2304 12.0306 15.5563 12.225C15.8821 12.4139 16.1422 12.6694 16.3365 12.9917C16.5309 13.3083 16.6281 13.6611 16.6281 14.05C16.6281 14.45 16.5309 14.8083 16.3365 15.125C16.1422 15.4417 15.8821 15.6917 15.5563 15.875C15.2304 16.0639 14.8646 16.1583 14.4587 16.1583Z" fill="white"/>
</svg>
