<svg width="20" height="20" viewBox="0 0 20 20" fill="none" xmlns="http://www.w3.org/2000/svg">
<path d="M7.92857 17.7143H11.0714M4 7.5C4 6.04131 4.57946 4.64236 5.61091 3.61091C6.64236 2.57946 8.04131 2 9.5 2C10.9587 2 12.3576 2.57946 13.3891 3.61091C14.4205 4.64236 15 6.04131 15 7.5C15.0005 8.38556 14.7863 9.25804 14.3758 10.0427C13.9653 10.8273 13.3707 11.5008 12.6429 12.0053L12.217 14.0214C12.1606 14.393 11.9729 14.7321 11.6879 14.9772C11.4029 15.2223 11.0395 15.3571 10.6636 15.3571H8.33636C7.96049 15.3571 7.59709 15.2223 7.31209 14.9772C7.0271 14.7321 6.83938 14.393 6.783 14.0214L6.35714 12.0139C5.62911 11.5076 5.03445 10.8326 4.62398 10.0466C4.2135 9.26051 3.99942 8.38677 4 7.5Z" stroke="white" stroke-opacity="0.4" stroke-width="1.57143" stroke-linecap="round" stroke-linejoin="round"/>
</svg>
