<svg width="20" height="20" viewBox="0 0 20 20" fill="none" xmlns="http://www.w3.org/2000/svg">
<path d="M10.956 17.6642L12.3477 16.6909C14.1269 15.4454 15.504 13.7078 16.3103 11.6911C17.1166 9.6745 17.317 7.46642 16.8869 5.33758C16.8656 5.23268 16.8205 5.13407 16.7551 5.04939C16.6896 4.9647 16.6055 4.89622 16.5094 4.84925L10.0002 1.66675L3.49185 4.84925C3.39553 4.89612 3.31129 4.96456 3.24568 5.04925C3.18007 5.13393 3.13485 5.2326 3.11352 5.33758C2.6835 7.4665 2.884 9.67463 3.69042 11.6913C4.49685 13.7079 5.87416 15.4455 7.65352 16.6909L9.04519 17.6642C9.32526 17.8602 9.6588 17.9653 10.0006 17.9653C10.3424 17.9653 10.676 17.8602 10.956 17.6642Z" stroke="white" stroke-opacity="0.4" stroke-width="1.84615" stroke-linecap="round" stroke-linejoin="round"/>
</svg>
