<svg width="20" height="20" viewBox="0 0 20 20" fill="none" xmlns="http://www.w3.org/2000/svg">
<path d="M0.980075 17.1414L2.34681 18.51C2.69726 18.8664 3.06657 19.0283 3.45476 18.996C3.84295 18.969 4.22574 18.7503 4.60314 18.34L13.0624 8.99441L12.2213 8.15218L3.81868 17.3763C3.68929 17.5274 3.5572 17.6111 3.42241 17.6273C3.29302 17.6435 3.14205 17.5679 2.96953 17.4006L2.08802 16.5178C1.9155 16.3451 1.84001 16.1912 1.86158 16.0562C1.88315 15.9267 1.96671 15.7944 2.11228 15.6594L11.178 7.10748L10.337 6.27335L1.14182 14.8901C0.742851 15.2572 0.529887 15.6351 0.50293 16.0238C0.475973 16.4126 0.635021 16.7851 0.980075 17.1414ZM6.09928 2.71004C5.93214 2.87741 5.83779 3.06637 5.81622 3.27693C5.79466 3.48749 5.8324 3.67375 5.92944 3.83572C6.02649 3.98689 6.16936 4.10297 6.35807 4.18395C6.54677 4.25954 6.77051 4.26764 7.0293 4.20825C7.60619 4.06788 8.18038 4.01119 8.75188 4.03818C9.32877 4.05978 9.89218 4.24874 10.4421 4.60507L9.98922 5.71455C9.85983 6.04929 9.82209 6.34353 9.876 6.59728C9.93531 6.85103 10.0755 7.08859 10.2965 7.30994L12.0676 9.10779C12.2833 9.31295 12.4855 9.43712 12.6742 9.48032C12.8629 9.51811 13.0758 9.51271 13.3131 9.46412L14.1056 9.32645L14.5989 9.82045L14.5666 10.2416C14.5558 10.4413 14.5828 10.6249 14.6475 10.7923C14.7122 10.9596 14.8415 11.1405 15.0356 11.3349L15.6341 11.926C15.8336 12.1258 16.0492 12.2311 16.2811 12.2419C16.5183 12.2473 16.734 12.1528 16.928 11.9584L19.2248 9.65848C19.4135 9.46412 19.5052 9.25086 19.4998 9.01871C19.4944 8.78655 19.3919 8.57059 19.1925 8.37083L18.594 7.76345C18.3999 7.57449 18.2193 7.44492 18.0522 7.37473C17.8904 7.29914 17.7125 7.26945 17.5184 7.28565L17.0817 7.32614L16.6126 6.85643L16.7906 6.02229C16.8391 5.78474 16.8256 5.56608 16.7501 5.36632C16.68 5.16116 16.5237 4.93441 16.2811 4.68606L14.5828 2.99349C13.925 2.34022 13.2214 1.84891 12.472 1.51958C11.7226 1.19024 10.9678 1.01748 10.2076 1.00128C9.45277 0.985082 8.72223 1.12275 8.01594 1.4143C7.31505 1.70044 6.67616 2.13236 6.09928 2.71004ZM7.40132 3.02588C7.87577 2.69115 8.37987 2.45629 8.91362 2.32132C9.44738 2.18635 9.98653 2.14585 10.5311 2.19984C11.081 2.25383 11.6121 2.405 12.1242 2.65335C12.6364 2.89631 13.1082 3.23374 13.5395 3.66566L15.4238 5.54449C15.5155 5.63627 15.5721 5.72535 15.5937 5.81174C15.6152 5.89812 15.6125 6.0088 15.5856 6.14377L15.343 7.29375L16.556 8.48421L17.3162 8.45182C17.4133 8.44642 17.4861 8.45182 17.5346 8.46802C17.5831 8.48421 17.6451 8.5274 17.7206 8.59759L18.133 9.01871L16.2811 10.8732L15.8605 10.4521C15.7904 10.3819 15.7446 10.3226 15.7231 10.274C15.7069 10.2254 15.7015 10.1498 15.7069 10.0472L15.7554 9.28595L14.5585 8.08739L13.3778 8.28985C13.2484 8.31145 13.1432 8.31415 13.0624 8.29795C12.9869 8.27635 12.9033 8.21966 12.8117 8.12788L11.2832 6.61348C11.1807 6.5163 11.1214 6.42452 11.1053 6.33813C11.0945 6.25175 11.1187 6.13567 11.178 5.9899L11.8655 4.35402C11.2562 3.77633 10.5688 3.37951 9.80322 3.16355C9.03763 2.9422 8.25856 2.9422 7.46601 3.16355C7.40671 3.17975 7.36897 3.17165 7.35279 3.13926C7.33662 3.10147 7.35279 3.06367 7.40132 3.02588Z" fill="white" fill-opacity="0.4"/>
</svg>
