<svg width="20" height="20" viewBox="0 0 20 20" fill="none" xmlns="http://www.w3.org/2000/svg">
<path d="M9.1152 19.5H10.8941C11.248 19.5 11.5523 19.4006 11.8069 19.2017C12.0614 19.0028 12.2291 18.7324 12.3098 18.3906L12.6824 16.787L12.9431 16.6938L14.3309 17.5608C14.6289 17.7473 14.9363 17.8188 15.2529 17.7753C15.5758 17.738 15.8645 17.5919 16.1191 17.3371L17.3485 16.1065C17.6093 15.8517 17.7583 15.5626 17.7956 15.2395C17.8328 14.9163 17.7583 14.6086 17.5721 14.3165L16.7059 12.9274L16.799 12.685L18.401 12.3214C18.7363 12.2344 19.0033 12.0635 19.202 11.8086C19.4007 11.5538 19.5 11.2493 19.5 10.895V9.16094C19.5 8.80667 19.4007 8.50213 19.202 8.2473C19.0095 7.98626 18.7425 7.81534 18.401 7.73454L16.8176 7.35231L16.7152 7.10059L17.5814 5.71148C17.7676 5.41315 17.8391 5.1055 17.7956 4.78852C17.7583 4.46533 17.6124 4.17632 17.3578 3.92149L16.1284 2.68155C15.8801 2.43294 15.5944 2.28999 15.2716 2.2527C14.9549 2.20919 14.6444 2.27756 14.3402 2.4578L12.9525 3.30618L12.6824 3.21295L12.3098 1.60942C12.2291 1.2738 12.0614 1.00654 11.8069 0.807655C11.5523 0.602552 11.248 0.5 10.8941 0.5H9.1152C8.76127 0.5 8.45703 0.602552 8.20245 0.807655C7.94788 1.00654 7.78023 1.2738 7.69951 1.60942L7.32696 3.21295L7.05686 3.30618L5.6598 2.4578C5.36176 2.27756 5.05131 2.20919 4.72843 2.2527C4.40556 2.28999 4.12304 2.43294 3.88088 2.68155L2.64216 3.92149C2.39379 4.17632 2.24788 4.46533 2.20441 4.78852C2.16095 5.1055 2.23235 5.41315 2.41863 5.71148L3.2848 7.10059L3.19167 7.35231L1.61765 7.73454C1.27614 7.81534 1.00294 7.98626 0.798039 8.2473C0.599346 8.50213 0.5 8.80667 0.5 9.16094V10.895C0.5 11.2493 0.602451 11.5538 0.807353 11.8086C1.01225 12.0635 1.28235 12.2344 1.61765 12.3214L3.20098 12.685L3.29412 12.9274L2.42794 14.3165C2.24167 14.6086 2.17026 14.9163 2.21373 15.2395C2.25719 15.5626 2.4031 15.8517 2.65147 16.1065L3.88088 17.3371C4.13546 17.5919 4.42418 17.738 4.74706 17.7753C5.06993 17.8188 5.38039 17.7473 5.67843 17.5608L7.06618 16.6938L7.32696 16.787L7.69951 18.3906C7.78023 18.7324 7.94788 19.0028 8.20245 19.2017C8.45703 19.4006 8.76127 19.5 9.1152 19.5ZM9.29216 18.0083C9.15556 18.0083 9.07484 17.9431 9.05 17.8126L8.51912 15.631C8.23971 15.5689 7.97271 15.485 7.71814 15.3793C7.46977 15.2674 7.24624 15.1493 7.04755 15.025L5.13824 16.1997C5.02647 16.2743 4.91471 16.2619 4.80294 16.1624L3.825 15.1649C3.72565 15.0841 3.71324 14.9815 3.78775 14.8572L4.97059 12.946C4.85882 12.7471 4.74706 12.5234 4.63529 12.2748C4.52974 12.0262 4.44592 11.7651 4.38382 11.4917L2.1951 10.9696C2.06471 10.9447 1.99951 10.8608 1.99951 10.7179V9.31943C1.99951 9.17648 2.06471 9.09258 2.1951 9.06771L4.37451 8.54563C4.44281 8.25352 4.53284 7.98005 4.64461 7.72522C4.75637 7.4704 4.85882 7.25286 4.95196 7.07262L3.77843 5.17076C3.70392 5.04645 3.71324 4.93458 3.80637 4.83513L4.79363 3.86555C4.89918 3.76611 5.01405 3.75057 5.13824 3.81894L7.02892 4.9843C7.22141 4.86621 7.45114 4.75433 7.71814 4.64868C7.98513 4.5368 8.25523 4.44668 8.52843 4.37831L9.05 2.18744C9.07484 2.06313 9.15556 2.00098 9.29216 2.00098H10.7172C10.8538 2.00098 10.9345 2.06313 10.9593 2.18744L11.4902 4.37831C11.7696 4.4529 12.0335 4.54612 12.2819 4.658C12.5302 4.76366 12.76 4.87553 12.9711 4.99362L14.8711 3.82826C14.9891 3.7599 15.1008 3.77233 15.2064 3.86555L16.1936 4.84446C16.293 4.93768 16.3023 5.04645 16.2216 5.17076L15.048 7.07262C15.1474 7.25286 15.2529 7.4704 15.3647 7.72522C15.4827 7.98005 15.5727 8.25352 15.6348 8.54563L17.8142 9.06771C17.9446 9.09258 18.0098 9.17648 18.0098 9.31943V10.7179C18.0098 10.8608 17.9446 10.9447 17.8142 10.9696L15.6255 11.4917C15.5634 11.7651 15.4765 12.0262 15.3647 12.2748C15.2592 12.5234 15.1505 12.7471 15.0387 12.946L16.2123 14.8572C16.2868 14.9753 16.2743 15.0779 16.175 15.1649L15.1971 16.1531C15.0853 16.2588 14.9766 16.2743 14.8711 16.1997L12.9618 15.025C12.7569 15.1493 12.5302 15.2643 12.2819 15.37C12.0397 15.4756 11.7758 15.5626 11.4902 15.631L10.9593 17.8126C10.9345 17.9431 10.8538 18.0083 10.7172 18.0083H9.29216ZM10.0093 13.3562C10.624 13.3562 11.1828 13.2071 11.6858 12.9087C12.1887 12.6042 12.5923 12.2002 12.8966 11.6968C13.2008 11.1871 13.3529 10.6215 13.3529 10C13.3529 9.38469 13.2008 8.82532 12.8966 8.32188C12.5923 7.81845 12.1887 7.41757 11.6858 7.11924C11.1828 6.81469 10.624 6.66241 10.0093 6.66241C9.39461 6.66241 8.83268 6.81469 8.32353 7.11924C7.81438 7.41757 7.40768 7.81845 7.10343 8.32188C6.79918 8.82532 6.64706 9.38469 6.64706 10C6.64706 10.6153 6.79918 11.1778 7.10343 11.6874C7.40768 12.1909 7.81127 12.5949 8.31422 12.8994C8.82337 13.204 9.3884 13.3562 10.0093 13.3562ZM10.0093 11.9205C9.6616 11.9205 9.34183 11.8335 9.05 11.6595C8.76438 11.4854 8.53464 11.2524 8.36078 10.9603C8.18693 10.6681 8.1 10.3481 8.1 10C8.1 9.65816 8.18693 9.34429 8.36078 9.05839C8.53464 8.76627 8.76438 8.5332 9.05 8.35918C9.34183 8.18515 9.6616 8.09814 10.0093 8.09814C10.3446 8.09814 10.6551 8.18515 10.9407 8.35918C11.2325 8.5332 11.4623 8.76627 11.6299 9.05839C11.8038 9.34429 11.8907 9.65816 11.8907 10C11.8907 10.3481 11.8038 10.6681 11.6299 10.9603C11.4623 11.2462 11.2325 11.4792 10.9407 11.6595C10.6551 11.8335 10.3446 11.9205 10.0093 11.9205Z" fill="white" fill-opacity="0.4"/>
</svg>
