<svg width="22" height="27" viewBox="0 0 22 27" fill="none" xmlns="http://www.w3.org/2000/svg">
<g filter="url(#filter0_d_1_33336)">
<path d="M6.54393 19H15.6653C16.4073 19 16.9819 18.7832 17.3891 18.3496C17.7964 17.9159 18 17.274 18 16.4239V7.2491C18 6.40465 17.7852 5.76562 17.3556 5.33198C16.9261 4.89835 16.2929 4.68153 15.4561 4.68153H6.54393C5.70711 4.68153 5.07392 4.89835 4.64435 5.33198C4.21478 5.76562 4 6.40465 4 7.2491V16.4239C4 17.274 4.21478 17.9159 4.64435 18.3496C5.07392 18.7832 5.70711 19 6.54393 19ZM6.60251 17.545C6.22315 17.545 5.93305 17.4423 5.73222 17.2369C5.53138 17.0315 5.43096 16.7263 5.43096 16.3212V7.36036C5.43096 6.95526 5.53138 6.65 5.73222 6.44459C5.93305 6.23919 6.22315 6.13649 6.60251 6.13649H15.3975C15.7768 6.13649 16.0669 6.23919 16.2678 6.44459C16.4742 6.65 16.5774 6.95526 16.5774 7.36036V16.3212C16.5774 16.7263 16.4826 17.0315 16.2929 17.2369C16.1088 17.4423 15.8828 17.545 15.6151 17.545H6.60251ZM5.74059 3.38063H16.2343C16.1729 3.00976 16.0418 2.72162 15.841 2.51622C15.6457 2.31081 15.3445 2.20811 14.9372 2.20811H7.03766C6.62483 2.20811 6.31799 2.31081 6.11715 2.51622C5.9219 2.72162 5.79637 3.00976 5.74059 3.38063ZM7.1046 1.07838H14.8619C14.8396 0.73033 14.728 0.465015 14.5272 0.282432C14.3264 0.0941441 14.0391 0 13.6653 0H8.30126C7.93305 0 7.64854 0.0941441 7.4477 0.282432C7.24686 0.465015 7.1325 0.73033 7.1046 1.07838ZM8.15063 15.0459C8.15063 15.6393 8.42399 15.936 8.97071 15.936H13.0293C13.576 15.936 13.8494 15.6393 13.8494 15.0459V11.8536C13.8494 11.3059 13.6206 11.012 13.1632 10.9721V10.0392C13.1632 9.29745 12.9623 8.69835 12.5607 8.24189C12.1646 7.78544 11.6457 7.55721 11.0042 7.55721C10.3515 7.55721 9.82706 7.78544 9.43096 8.24189C9.03487 8.69835 8.83682 9.29745 8.83682 10.0392V10.9721C8.37936 11.012 8.15063 11.3059 8.15063 11.8536V15.0459ZM9.71548 10.955V9.9536C9.71548 9.49144 9.83264 9.12057 10.0669 8.84099C10.3013 8.56141 10.6137 8.42162 11.0042 8.42162C11.3891 8.42162 11.6987 8.56141 11.9331 8.84099C12.1729 9.12057 12.2929 9.49144 12.2929 9.9536V10.955H9.71548Z" fill="white"/>
</g>
<defs>
<filter id="filter0_d_1_33336" x="-3" y="0" width="28" height="28" filterUnits="userSpaceOnUse" color-interpolation-filters="sRGB">
<feFlood flood-opacity="0" result="BackgroundImageFix"/>
<feColorMatrix in="SourceAlpha" type="matrix" values="0 0 0 0 0 0 0 0 0 0 0 0 0 0 0 0 0 0 127 0" result="hardAlpha"/>
<feOffset dy="4"/>
<feGaussianBlur stdDeviation="2"/>
<feComposite in2="hardAlpha" operator="out"/>
<feColorMatrix type="matrix" values="0 0 0 0 0 0 0 0 0 0 0 0 0 0 0 0 0 0 0.25 0"/>
<feBlend mode="normal" in2="BackgroundImageFix" result="effect1_dropShadow_1_33336"/>
<feBlend mode="normal" in="SourceGraphic" in2="effect1_dropShadow_1_33336" result="shape"/>
</filter>
</defs>
</svg>
