<svg width="20" height="20" viewBox="0 0 20 20" fill="none" xmlns="http://www.w3.org/2000/svg">
<path d="M5.54393 19H14.6653C15.4073 19 15.9819 18.7832 16.3891 18.3496C16.7964 17.9159 17 17.274 17 16.4239V7.2491C17 6.40465 16.7852 5.76562 16.3556 5.33198C15.9261 4.89835 15.2929 4.68153 14.4561 4.68153H5.54393C4.70711 4.68153 4.07392 4.89835 3.64435 5.33198C3.21478 5.76562 3 6.40465 3 7.2491V16.4239C3 17.274 3.21478 17.9159 3.64435 18.3496C4.07392 18.7832 4.70711 19 5.54393 19ZM5.60251 17.545C5.22315 17.545 4.93305 17.4423 4.73222 17.2369C4.53138 17.0315 4.43096 16.7263 4.43096 16.3212V7.36036C4.43096 6.95526 4.53138 6.65 4.73222 6.44459C4.93305 6.23919 5.22315 6.13649 5.60251 6.13649H14.3975C14.7768 6.13649 15.0669 6.23919 15.2678 6.44459C15.4742 6.65 15.5774 6.95526 15.5774 7.36036V16.3212C15.5774 16.7263 15.4826 17.0315 15.2929 17.2369C15.1088 17.4423 14.8828 17.545 14.6151 17.545H5.60251ZM4.74059 3.38063H15.2343C15.1729 3.00976 15.0418 2.72162 14.841 2.51622C14.6457 2.31081 14.3445 2.20811 13.9372 2.20811H6.03766C5.62483 2.20811 5.31799 2.31081 5.11715 2.51622C4.9219 2.72162 4.79637 3.00976 4.74059 3.38063ZM6.1046 1.07838H13.8619C13.8396 0.73033 13.728 0.465015 13.5272 0.282432C13.3264 0.0941442 13.0391 0 12.6653 0H7.30126C6.93305 0 6.64854 0.0941442 6.4477 0.282432C6.24686 0.465015 6.1325 0.73033 6.1046 1.07838ZM7.15063 15.0459C7.15063 15.6393 7.42399 15.936 7.97071 15.936H12.0293C12.576 15.936 12.8494 15.6393 12.8494 15.0459V11.8536C12.8494 11.3059 12.6206 11.012 12.1632 10.9721V10.0392C12.1632 9.29745 11.9623 8.69835 11.5607 8.24189C11.1646 7.78544 10.6457 7.55721 10.0042 7.55721C9.35146 7.55721 8.82706 7.78544 8.43096 8.24189C8.03487 8.69835 7.83682 9.29745 7.83682 10.0392V10.9721C7.37936 11.012 7.15063 11.3059 7.15063 11.8536V15.0459ZM8.71548 10.955V9.9536C8.71548 9.49144 8.83264 9.12057 9.06695 8.84099C9.30126 8.56141 9.61367 8.42162 10.0042 8.42162C10.3891 8.42162 10.6987 8.56141 10.9331 8.84099C11.1729 9.12057 11.2929 9.49144 11.2929 9.9536V10.955H8.71548Z" fill="white" fill-opacity="0.4"/>
</svg>
