<svg width="20" height="20" viewBox="0 0 14 19" fill="none" xmlns="http://www.w3.org/2000/svg">
<path d="M2.54393 19H11.6653C12.4073 19 12.9819 18.7832 13.3891 18.3496C13.7964 17.9159 14 17.274 14 16.4239V7.2491C14 6.40465 13.7852 5.76562 13.3556 5.33198C12.9261 4.89835 12.2929 4.68153 11.4561 4.68153H2.54393C1.70711 4.68153 1.07392 4.89835 0.644351 5.33198C0.214784 5.76562 0 6.40465 0 7.2491V16.4239C0 17.274 0.214784 17.9159 0.644351 18.3496C1.07392 18.7832 1.70711 19 2.54393 19ZM2.60251 17.545C2.22315 17.545 1.93305 17.4423 1.73222 17.2369C1.53138 17.0315 1.43096 16.7263 1.43096 16.3212V7.36036C1.43096 6.95526 1.53138 6.65 1.73222 6.44459C1.93305 6.23919 2.22315 6.13649 2.60251 6.13649H11.3975C11.7768 6.13649 12.0669 6.23919 12.2678 6.44459C12.4742 6.65 12.5774 6.95526 12.5774 7.36036V16.3212C12.5774 16.7263 12.4826 17.0315 12.2929 17.2369C12.1088 17.4423 11.8828 17.545 11.6151 17.545H2.60251ZM1.74059 3.38063H12.2343C12.1729 3.00976 12.0418 2.72162 11.841 2.51622C11.6457 2.31081 11.3445 2.20811 10.9372 2.20811H3.03766C2.62483 2.20811 2.31799 2.31081 2.11715 2.51622C1.9219 2.72162 1.79637 3.00976 1.74059 3.38063ZM3.1046 1.07838H10.8619C10.8396 0.73033 10.728 0.465015 10.5272 0.282432C10.3264 0.0941441 10.0391 0 9.66527 0H4.30126C3.93305 0 3.64854 0.0941441 3.4477 0.282432C3.24686 0.465015 3.1325 0.73033 3.1046 1.07838ZM4.15063 15.0459C4.15063 15.6393 4.42399 15.936 4.97071 15.936H9.02929C9.57601 15.936 9.84937 15.6393 9.84937 15.0459V11.8536C9.84937 11.3059 9.62064 11.012 9.16318 10.9721V10.0392C9.16318 9.29745 8.96234 8.69835 8.56067 8.24189C8.16457 7.78544 7.64575 7.55721 7.00418 7.55721C6.35146 7.55721 5.82706 7.78544 5.43096 8.24189C5.03487 8.69835 4.83682 9.29745 4.83682 10.0392V10.9721C4.37936 11.012 4.15063 11.3059 4.15063 11.8536V15.0459ZM5.71548 10.955V9.9536C5.71548 9.49144 5.83264 9.12057 6.06695 8.84099C6.30126 8.56141 6.61367 8.42162 7.00418 8.42162C7.38912 8.42162 7.69874 8.56141 7.93305 8.84099C8.17294 9.12057 8.29289 9.49144 8.29289 9.9536V10.955H5.71548Z" fill="white"/>
</svg>
