<svg width="21" height="22" viewBox="0 0 21 22" fill="none" xmlns="http://www.w3.org/2000/svg">
<path d="M18.5 6.27774L9.99997 11M9.99997 11L1.49997 6.27774M9.99997 11L10 20.5M19 11V6.94144C19 6.59879 19 6.42747 18.9495 6.27468C18.9049 6.1395 18.8318 6.01542 18.7354 5.91073C18.6263 5.79239 18.4766 5.70919 18.177 5.54279L10.777 1.43168C10.4934 1.27412 10.3516 1.19534 10.2015 1.16445C10.0685 1.13712 9.93146 1.13712 9.79855 1.16445C9.64838 1.19534 9.50657 1.27412 9.22297 1.43168L1.82297 5.54279C1.52345 5.70919 1.37368 5.79239 1.26463 5.91073C1.16816 6.01542 1.09515 6.1395 1.05048 6.27468C1 6.42748 1 6.5988 1 6.94144V15.0585C1 15.4012 1 15.5725 1.05048 15.7253C1.09515 15.8605 1.16816 15.9846 1.26463 16.0893C1.37368 16.2076 1.52346 16.2908 1.82297 16.4572L9.22297 20.5683C9.50658 20.7259 9.64838 20.8046 9.79855 20.8355C9.93146 20.8629 10.0685 20.8629 10.2015 20.8355C10.3516 20.8046 10.4934 20.7259 10.777 20.5683L11 20.4444M5.5 3.49999L14.5 8.49999M20 20.5L19 19.5M20 17C20 18.6568 18.6569 20 17 20C15.3431 20 14 18.6568 14 17C14 15.3431 15.3431 14 17 14C18.6569 14 20 15.3431 20 17Z" stroke="white" stroke-width="2" stroke-linecap="round" stroke-linejoin="round"/>
</svg>
