<svg width="32" height="24" viewBox="0 0 32 24" fill="none" xmlns="http://www.w3.org/2000/svg">
<rect x="0.3" y="0.3" width="30.9" height="23.4" rx="4.5" fill="url(#paint0_linear_208_37612)" stroke="#666666" stroke-width="0.6"/>
<path fill-rule="evenodd" clip-rule="evenodd" d="M20.1774 5.26947C19.1009 3.1195 17.4097 1.4313 16.2972 0.771616C16.2237 0.729069 16.17 0.659042 16.1481 0.576941C16.1262 0.494839 16.1377 0.407387 16.1803 0.333825C16.2228 0.260262 16.2929 0.206614 16.375 0.184683C16.4571 0.162752 16.5445 0.174334 16.6181 0.216881C18.0754 1.07147 19.7696 3.03254 20.7411 4.96962C20.7645 5.00671 20.7795 5.04849 20.785 5.09199C20.7904 5.1355 20.7863 5.17968 20.7729 5.22143C20.7595 5.26317 20.737 5.30146 20.7072 5.33359C20.6773 5.36573 20.6408 5.39092 20.6002 5.40741C20.5569 5.43079 20.5085 5.44315 20.4592 5.44339C20.4007 5.44345 20.3434 5.42721 20.2936 5.39649C20.2438 5.36577 20.2036 5.32179 20.1774 5.26947ZM10.432 15.5576C10.453 18.5382 13.2567 22.0915 15.1878 23.2399C15.225 23.2594 15.2578 23.2864 15.2839 23.3194C15.31 23.3523 15.3289 23.3904 15.3394 23.4311C15.3499 23.4718 15.3517 23.5143 15.3446 23.5557C15.3376 23.5972 15.322 23.6367 15.2987 23.6717C15.2704 23.7189 15.2305 23.7581 15.1827 23.7854C15.1349 23.8127 15.0809 23.8272 15.0258 23.8276C14.9697 23.8278 14.9146 23.8122 14.8669 23.7827C12.8069 22.5682 9.98824 19.0179 9.80833 15.8394H0.31485C0.236262 15.8318 0.163339 15.7951 0.110283 15.7367C0.0572272 15.6782 0.0278372 15.6021 0.0278372 15.5231C0.0278372 15.4441 0.0572272 15.368 0.110283 15.3095C0.163339 15.251 0.236262 15.2144 0.31485 15.2067H9.8683C10.4666 13.1096 10.4666 10.8869 9.8683 8.7898H0.31485C0.231347 8.7898 0.151263 8.75663 0.0922174 8.69758C0.0331716 8.63853 0 8.55845 0 8.47495C0 8.39144 0.0331716 8.31136 0.0922174 8.25232C0.151263 8.19327 0.231347 8.1601 0.31485 8.1601H9.80833C9.98824 4.96962 12.8189 1.4313 14.8669 0.216881C14.9405 0.174334 15.0279 0.162752 15.11 0.184683C15.1921 0.206614 15.2622 0.260262 15.3047 0.333825C15.3473 0.407387 15.3588 0.494839 15.3369 0.576941C15.315 0.659042 15.2613 0.729069 15.1878 0.771616C13.2567 1.90508 10.453 5.46138 10.432 8.44496C11.1188 10.7661 11.1188 13.2364 10.432 15.5576ZM31.1852 15.2068H21.6137C21.0154 13.1097 21.0154 10.887 21.6137 8.78986H31.1852C31.2687 8.78986 31.3488 8.75668 31.4078 8.69764C31.4669 8.63859 31.5 8.55851 31.5 8.47501C31.5 8.3915 31.4669 8.31142 31.4078 8.25237C31.3488 8.19333 31.2687 8.16016 31.1852 8.16016H21.3709C21.3026 8.16094 21.2364 8.18388 21.1824 8.22552C21.1283 8.26717 21.0892 8.32526 21.071 8.39105C20.3738 10.729 20.3738 13.2196 21.071 15.5576C21.05 18.5382 18.2463 22.0915 16.3153 23.24C16.277 23.2583 16.2431 23.2846 16.2157 23.3171C16.1884 23.3495 16.1682 23.3874 16.1566 23.4282C16.145 23.469 16.1422 23.5118 16.1483 23.5538C16.1545 23.5958 16.1695 23.636 16.1923 23.6718C16.2206 23.719 16.2606 23.7581 16.3084 23.7854C16.3561 23.8127 16.4102 23.8273 16.4652 23.8277C16.5213 23.8279 16.5764 23.8123 16.6241 23.7827C18.6721 22.5833 21.5028 19.018 21.6827 15.8395H31.1852C31.2638 15.8318 31.3367 15.7952 31.3897 15.7367C31.4428 15.6782 31.4722 15.6021 31.4722 15.5231C31.4722 15.4442 31.4428 15.3681 31.3897 15.3096C31.3367 15.2511 31.2638 15.2145 31.1852 15.2068ZM15.4293 1.93407C15.522 1.87212 15.631 1.83906 15.7425 1.83906C15.892 1.83906 16.0354 1.89846 16.1411 2.00418C16.2469 2.1099 16.3062 2.25328 16.3062 2.40279C16.3062 2.51429 16.2732 2.62328 16.2112 2.71599C16.1493 2.80869 16.0613 2.88095 15.9582 2.92361C15.8552 2.96628 15.7419 2.97745 15.6325 2.95569C15.5232 2.93394 15.4227 2.88025 15.3439 2.80141C15.2651 2.72257 15.2114 2.62213 15.1896 2.51277C15.1679 2.40342 15.179 2.29007 15.2217 2.18706C15.2644 2.08405 15.3366 1.99601 15.4293 1.93407Z" fill="#666666"/>
<defs>
<linearGradient id="paint0_linear_208_37612" x1="-3" y1="-4.83077e-07" x2="34.05" y2="24" gradientUnits="userSpaceOnUse">
<stop stop-color="#DDD9D6"/>
<stop offset="0.212761" stop-color="#8A868C"/>
<stop offset="0.548384" stop-color="#F2F3F3" stop-opacity="0.8"/>
<stop offset="0.914316" stop-color="#807C80"/>
<stop offset="1" stop-color="#A6A8AB"/>
</linearGradient>
</defs>
</svg>
