<svg width="20" height="20" viewBox="0 0 20 20" fill="none" xmlns="http://www.w3.org/2000/svg">
<path d="M4.43057 16.1987C4.93751 15.0043 6.12109 14.1667 7.50033 14.1667H12.5003C13.8796 14.1667 15.0631 15.0043 15.5701 16.1987M13.3337 7.91666C13.3337 9.75761 11.8413 11.25 10.0003 11.25C8.15938 11.25 6.66699 9.75761 6.66699 7.91666C6.66699 6.07571 8.15938 4.58332 10.0003 4.58332C11.8413 4.58332 13.3337 6.07571 13.3337 7.91666ZM18.3337 9.99999C18.3337 14.6024 14.6027 18.3333 10.0003 18.3333C5.39795 18.3333 1.66699 14.6024 1.66699 9.99999C1.66699 5.39762 5.39795 1.66666 10.0003 1.66666C14.6027 1.66666 18.3337 5.39762 18.3337 9.99999Z" stroke="#16132F" stroke-width="1.66667" stroke-linecap="round" stroke-linejoin="round"/>
</svg>
