<svg width="18" height="18" viewBox="0 0 18 18" fill="none" xmlns="http://www.w3.org/2000/svg">
<path d="M9.83303 8.16618L1.91637 16.0828M10.6817 1.94823C11.6967 2.62174 12.6723 3.41576 13.584 4.32742C14.5035 5.24694 15.3034 6.23152 15.9806 7.25597M6.71217 5.57963L4.31644 4.78105C4.04054 4.68909 3.73665 4.74761 3.51464 4.93547L1.13367 6.95013C0.646232 7.36258 0.784715 8.1475 1.38387 8.36824L3.63987 9.19939M8.73391 14.2933L9.56506 16.5493C9.7858 17.1484 10.5707 17.2869 10.9832 16.7995L12.9978 14.4185C13.1857 14.1965 13.2442 13.8926 13.1522 13.6167L12.3537 11.221M15.1235 0.891783L11.0348 1.57324C10.5933 1.64682 10.1883 1.86383 9.88256 2.19069L4.37167 8.08164C2.9432 9.60862 2.98294 11.9933 4.46148 13.4718C5.94002 14.9504 8.32467 14.9901 9.85165 13.5616L15.7426 8.05073C16.0695 7.74495 16.2865 7.34 16.3601 6.8985L17.0415 2.80977C17.2295 1.68174 16.2516 0.703777 15.1235 0.891783Z" stroke="#6B55FD" stroke-width="1.66667" stroke-linecap="round" stroke-linejoin="round"/>
</svg>
