<svg width="18" height="18" viewBox="0 0 18 18" fill="none" xmlns="http://www.w3.org/2000/svg">
<path d="M6.91667 6.47111C6.91667 6.07337 6.91667 5.8745 6.99978 5.76348C7.07222 5.66673 7.18309 5.6062 7.30365 5.59759C7.44199 5.58771 7.60927 5.69524 7.94384 5.91032L11.8777 8.43921C12.168 8.62585 12.3131 8.71917 12.3633 8.83783C12.4071 8.9415 12.4071 9.0585 12.3633 9.16217C12.3131 9.28083 12.168 9.37415 11.8777 9.56079L7.94384 12.0897C7.60927 12.3048 7.44199 12.4123 7.30365 12.4024C7.18309 12.3938 7.07222 12.3333 6.99978 12.2365C6.91667 12.1255 6.91667 11.9266 6.91667 11.5289V6.47111Z" stroke="#6B55FD" stroke-width="1.66667" stroke-linecap="round" stroke-linejoin="round"/>
<path d="M1.5 5.5C1.5 4.09987 1.5 3.3998 1.77248 2.86502C2.01217 2.39462 2.39462 2.01217 2.86502 1.77248C3.3998 1.5 4.09987 1.5 5.5 1.5H12.5C13.9001 1.5 14.6002 1.5 15.135 1.77248C15.6054 2.01217 15.9878 2.39462 16.2275 2.86502C16.5 3.3998 16.5 4.09987 16.5 5.5V12.5C16.5 13.9001 16.5 14.6002 16.2275 15.135C15.9878 15.6054 15.6054 15.9878 15.135 16.2275C14.6002 16.5 13.9001 16.5 12.5 16.5H5.5C4.09987 16.5 3.3998 16.5 2.86502 16.2275C2.39462 15.9878 2.01217 15.6054 1.77248 15.135C1.5 14.6002 1.5 13.9001 1.5 12.5V5.5Z" stroke="#6B55FD" stroke-width="1.66667" stroke-linecap="round" stroke-linejoin="round"/>
</svg>
