<svg width="189" height="36" viewBox="0 0 189 36" fill="none" xmlns="http://www.w3.org/2000/svg">
<g clip-path="url(#clip0_1_13228)">
<path d="M0 12.0814C0 7.938 0 5.86628 0.806368 4.28369C1.51567 2.89161 2.64747 1.75981 4.03955 1.05051C5.62214 0.244141 7.69386 0.244141 11.8373 0.244141H23.6746C27.8181 0.244141 29.8898 0.244141 31.4724 1.05051C32.8645 1.75981 33.9963 2.89161 34.7056 4.28369C35.5119 5.86628 35.5119 7.938 35.5119 12.0814V23.9188C35.5119 28.0622 35.5119 30.1339 34.7056 31.7165C33.9963 33.1086 32.8645 34.2404 31.4724 34.9497C29.8898 35.7561 27.8181 35.7561 23.6746 35.7561H11.8373C7.69386 35.7561 5.62214 35.7561 4.03955 34.9497C2.64747 34.2404 1.51567 33.1086 0.806368 31.7165C0 30.1339 0 28.0622 0 23.9188V12.0814Z" fill="white" fill-opacity="0.1"/>
<path d="M0.422761 12.0814C0.422761 10.0027 0.42309 8.46915 0.522153 7.25667C0.620813 6.04913 0.815295 5.19738 1.18305 4.47562C1.85182 3.16309 2.91895 2.09596 4.23148 1.42719C4.95324 1.05944 5.80499 0.864954 7.01253 0.766294C8.22501 0.66723 9.75861 0.666902 11.8373 0.666902H23.6746C25.7533 0.666902 27.2869 0.66723 28.4994 0.766294C29.7069 0.864954 30.5587 1.05944 31.2804 1.42719C32.593 2.09596 33.6601 3.16309 34.3289 4.47562C34.6966 5.19738 34.8911 6.04913 34.9898 7.25667C35.0888 8.46915 35.0892 10.0027 35.0892 12.0814V23.9188C35.0892 25.9975 35.0888 27.5311 34.9898 28.7435C34.8911 29.9511 34.6966 30.8028 34.3289 31.5246C33.6601 32.8371 32.593 33.9042 31.2804 34.573C30.5587 34.9408 29.7069 35.1353 28.4994 35.2339C27.2869 35.333 25.7533 35.3333 23.6746 35.3333H11.8373C9.75861 35.3333 8.22501 35.333 7.01253 35.2339C5.80499 35.1353 4.95324 34.9408 4.23148 34.573C2.91895 33.9042 1.85182 32.8371 1.18305 31.5246C0.815295 30.8028 0.620813 29.9511 0.522153 28.7435C0.42309 27.5311 0.422761 25.9975 0.422761 23.9188V12.0814Z" stroke="white" stroke-opacity="0.1" stroke-width="0.845522"/>
<g filter="url(#filter0_d_1_13228)">
<path d="M22.0366 26.3453C21.4472 26.2374 20.8882 26.0028 20.3984 25.6575C19.9086 25.3122 19.4998 24.8646 19.2001 24.3456L19.2001 24.3456L14.2565 15.7937L14.2565 15.7937L13.0819 13.7589L22.0366 26.3453ZM22.0366 26.3453C22.2376 26.3818 22.4449 26.3554 22.6303 26.2695C22.8156 26.1836 22.9698 26.0426 23.0719 25.8657L23.0719 25.8656L23.9524 24.341L24.9415 22.6277M22.0366 26.3453L24.9415 22.6277M24.9415 22.6277C24.8842 22.6765 24.823 22.7211 24.7583 22.7609C24.5345 22.8986 24.2779 22.9737 24.0152 22.9784C23.7525 22.983 23.4933 22.9171 23.2648 22.7875C23.0362 22.6578 22.8467 22.4693 22.7159 22.2414C22.7159 22.2414 22.7158 22.2414 22.7158 22.2413L21.5412 20.2071L21.5412 20.2071L16.5968 11.6539L16.5968 11.6539C16.2972 11.135 15.8884 10.6874 15.3986 10.3421C14.9089 9.99682 14.35 9.76213 13.7606 9.65426C13.5597 9.61795 13.3525 9.64461 13.1674 9.73059C12.9822 9.81657 12.8282 9.95768 12.7264 10.1346L12.7263 10.1346L11.8459 11.6593L11.8459 11.6593L10.857 13.3718C10.914 13.3232 10.9748 13.279 11.0391 13.2394C11.2629 13.1017 11.5195 13.0265 11.7823 13.0218C12.0451 13.0171 12.3043 13.083 12.5329 13.2127C12.7614 13.3423 12.951 13.5309 13.0818 13.7588L24.9415 22.6277Z" fill="#2965FF" stroke="#234DBD" stroke-width="0.0845522"/>
<path d="M20.8714 10.0826L20.8714 10.0827L19.8779 11.8032C19.7911 11.9537 19.7454 12.1244 19.7454 12.2981C19.7454 12.4719 19.7911 12.6426 19.8779 12.7931L19.8779 12.7931L20.4016 13.7028L20.4016 13.7028L21.2246 15.1281L21.2246 15.1281L22.858 17.9582H22.9129L22.8763 18.0216L21.6266 20.1858L22.7896 22.2L22.7897 22.2001C22.913 22.4149 23.0916 22.5926 23.307 22.7148C23.5224 22.837 23.7666 22.8991 24.0142 22.8947C24.2618 22.8903 24.5037 22.8195 24.7146 22.6897C24.9255 22.56 25.0977 22.376 25.2132 22.157L25.214 22.1555L25.214 22.1555L27.0316 19.012L20.8714 10.0826ZM20.8714 10.0826C20.9583 9.93202 21.0834 9.80693 21.2339 9.71996C21.3845 9.63299 21.5554 9.5872 21.7292 9.5872H22.1866C22.3605 9.5872 22.5314 9.63299 22.6819 9.71996C22.8325 9.80693 22.9576 9.93202 23.0445 10.0826L23.0445 10.0827M20.8714 10.0826L23.0445 10.0827M23.0445 10.0827L23.5679 10.989M23.0445 10.0827L23.5679 10.989M23.5679 10.989L23.5679 10.989M23.5679 10.989L23.5679 10.989M23.5679 10.989L25.2138 13.8398M23.5679 10.989L25.2138 13.8398M25.2138 13.8398L27.0316 16.9884M25.2138 13.8398L27.0316 16.9884M27.0316 16.9884C27.2092 17.2961 27.3027 17.645 27.3027 18.0002M27.0316 16.9884L27.3027 18.0002M27.3027 18.0002C27.3027 18.3554 27.2092 18.7044 27.0316 19.012L27.3027 18.0002Z" fill="url(#paint0_linear_1_13228)" stroke="#234DBD" stroke-width="0.0845522"/>
<path d="M14.9291 25.9176L14.9291 25.9176L15.9227 24.1971C16.0095 24.0465 16.0551 23.8759 16.0551 23.7021C16.0551 23.5284 16.0095 23.3577 15.9227 23.2071L15.9226 23.2071L15.399 22.2975L15.3989 22.2974L14.5759 20.8722L14.5759 20.8722L12.9425 18.042L12.8876 18.042L12.9242 17.9786L14.1739 15.8145L13.0109 13.8002L13.0108 13.8001C12.8876 13.5854 12.7089 13.4076 12.4935 13.2855C12.2781 13.1633 12.0339 13.1012 11.7863 13.1056C11.5387 13.11 11.2969 13.1808 11.086 13.3105C10.8751 13.4403 10.7029 13.6243 10.5873 13.8433L10.5865 13.8447L10.5865 13.8447L8.76892 16.9882L14.9291 25.9176ZM14.9291 25.9176C14.8422 26.0682 14.7172 26.1933 14.5666 26.2803C14.416 26.3673 14.2452 26.413 14.0713 26.413L13.6139 26.413C13.44 26.413 13.2692 26.3673 13.1186 26.2803C12.968 26.1933 12.843 26.0682 12.7561 25.9176L12.7561 25.9176M14.9291 25.9176L12.7561 25.9176M12.7561 25.9176L12.2326 25.0112M12.7561 25.9176L12.2326 25.0112M12.2326 25.0112L12.2326 25.0112M12.2326 25.0112L12.2326 25.0112M12.2326 25.0112L10.5868 22.1604M12.2326 25.0112L10.5868 22.1604M10.5868 22.1604L8.76892 19.0118M10.5868 22.1604L8.76892 19.0118M8.76892 19.0118C8.59134 18.7042 8.49785 18.3552 8.49785 18M8.76892 19.0118L8.49785 18M8.49785 18C8.49785 17.6448 8.59133 17.2959 8.7689 16.9882L8.49785 18Z" fill="url(#paint1_linear_1_13228)" stroke="#234DBD" stroke-width="0.0845522"/>
</g>
</g>
<path d="M54.6647 24.5H52.0605L46.1638 15.5899V24.5H43.5596V11.4976H46.1638L52.0605 20.4263V11.4976H54.6647V24.5ZM66.3953 19.1242C66.3953 19.4962 66.3705 19.831 66.3209 20.1287H58.7873C58.8493 20.8727 59.1097 21.4556 59.5685 21.8772C60.0273 22.2988 60.5916 22.5096 61.2612 22.5096C62.2285 22.5096 62.9168 22.0942 63.326 21.2633H66.1348C65.8372 22.2554 65.2668 23.0739 64.4235 23.7187C63.5802 24.3512 62.5448 24.6674 61.3171 24.6674C60.325 24.6674 59.4321 24.4504 58.6384 24.0164C57.8572 23.5699 57.2433 22.9437 56.7969 22.1376C56.3629 21.3315 56.1458 20.4015 56.1458 19.3474C56.1458 18.2809 56.3629 17.3446 56.7969 16.5386C57.2309 15.7325 57.8386 15.1125 58.6198 14.6784C59.4011 14.2444 60.3002 14.0274 61.3171 14.0274C62.2967 14.0274 63.171 14.2382 63.9399 14.6598C64.7211 15.0814 65.3226 15.6829 65.7442 16.4642C66.1782 17.233 66.3953 18.1197 66.3953 19.1242ZM63.698 18.3801C63.6856 17.7105 63.4438 17.1772 62.9726 16.7804C62.5013 16.3712 61.9247 16.1665 61.2426 16.1665C60.5978 16.1665 60.0522 16.365 59.6057 16.7618C59.1717 17.1462 58.9051 17.6857 58.8059 18.3801H63.698ZM72.5981 16.3339H70.7938V24.5H68.1524V16.3339H66.9805V14.1948H68.1524V13.6739C68.1524 12.409 68.512 11.479 69.2312 10.8837C69.9505 10.2885 71.0356 10.0094 72.4865 10.0466V12.2416C71.8541 12.2292 71.4138 12.3346 71.1658 12.5578C70.9178 12.7811 70.7938 13.1841 70.7938 13.7669V14.1948H72.5981V16.3339ZM76.895 16.3339V21.3191C76.895 21.6664 76.9756 21.9206 77.1369 22.0818C77.3105 22.2306 77.5957 22.305 77.9925 22.305H79.2016V24.5H77.5647C75.3697 24.5 74.2722 23.4335 74.2722 21.3005V16.3339H73.0445V14.1948H74.2722V11.6464H76.895V14.1948H79.2016V16.3339H76.895ZM90.3805 14.1948V24.5H87.7577V23.1979C87.4229 23.6443 86.9826 23.9978 86.437 24.2582C85.9038 24.5062 85.3209 24.6302 84.6885 24.6302C83.8824 24.6302 83.1693 24.4628 82.5493 24.128C81.9292 23.7807 81.4394 23.2785 81.0798 22.6213C80.7326 21.9516 80.5589 21.1579 80.5589 20.2403V14.1948H83.1631V19.8682C83.1631 20.6867 83.3678 21.3191 83.777 21.7656C84.1862 22.1996 84.7443 22.4166 85.4511 22.4166C86.1704 22.4166 86.7346 22.1996 87.1439 21.7656C87.5531 21.3191 87.7577 20.6867 87.7577 19.8682V14.1948H90.3805ZM95.1314 15.7945C95.4663 15.2489 95.9003 14.821 96.4335 14.511C96.9792 14.201 97.5992 14.046 98.2937 14.046V16.7804H97.6054C96.787 16.7804 96.1669 16.9726 95.7453 17.357C95.3361 17.7415 95.1314 18.4111 95.1314 19.366V24.5H92.5272V14.1948H95.1314V15.7945ZM109.205 19.1242C109.205 19.4962 109.18 19.831 109.13 20.1287H101.597C101.659 20.8727 101.919 21.4556 102.378 21.8772C102.837 22.2988 103.401 22.5096 104.071 22.5096C105.038 22.5096 105.726 22.0942 106.136 21.2633H108.944C108.647 22.2554 108.076 23.0739 107.233 23.7187C106.39 24.3512 105.354 24.6674 104.127 24.6674C103.134 24.6674 102.242 24.4504 101.448 24.0164C100.667 23.5699 100.053 22.9437 99.6064 22.1376C99.1724 21.3315 98.9553 20.4015 98.9553 19.3474C98.9553 18.2809 99.1724 17.3446 99.6064 16.5386C100.04 15.7325 100.648 15.1125 101.429 14.6784C102.211 14.2444 103.11 14.0274 104.127 14.0274C105.106 14.0274 105.981 14.2382 106.749 14.6598C107.531 15.0814 108.132 15.6829 108.554 16.4642C108.988 17.233 109.205 18.1197 109.205 19.1242ZM106.508 18.3801C106.495 17.7105 106.253 17.1772 105.782 16.7804C105.311 16.3712 104.734 16.1665 104.052 16.1665C103.407 16.1665 102.862 16.365 102.415 16.7618C101.981 17.1462 101.715 17.6857 101.615 18.3801H106.508ZM119.175 24.6302C118.27 24.6302 117.452 24.4752 116.72 24.1652C116.001 23.8551 115.43 23.4087 115.009 22.8259C114.587 22.243 114.37 21.5548 114.358 20.7611H117.148C117.185 21.2943 117.371 21.716 117.706 22.026C118.053 22.336 118.524 22.491 119.12 22.491C119.727 22.491 120.205 22.3484 120.552 22.0632C120.899 21.7656 121.073 21.3812 121.073 20.9099C121.073 20.5255 120.955 20.2093 120.719 19.9612C120.484 19.7132 120.186 19.521 119.826 19.3846C119.479 19.2358 118.996 19.0746 118.376 18.901C117.532 18.6529 116.844 18.4111 116.311 18.1755C115.79 17.9275 115.337 17.5616 114.953 17.078C114.581 16.582 114.395 15.9247 114.395 15.1063C114.395 14.3374 114.587 13.6677 114.971 13.0973C115.356 12.5268 115.895 12.0928 116.59 11.7952C117.284 11.4852 118.078 11.3302 118.971 11.3302C120.31 11.3302 121.395 11.6588 122.226 12.316C123.069 12.9609 123.534 13.8662 123.621 15.0318H120.757C120.732 14.5854 120.54 14.2196 120.18 13.9344C119.833 13.6367 119.368 13.4879 118.785 13.4879C118.276 13.4879 117.867 13.6181 117.557 13.8786C117.259 14.139 117.111 14.5172 117.111 15.0132C117.111 15.3605 117.222 15.6519 117.445 15.8875C117.681 16.1107 117.966 16.2967 118.301 16.4456C118.648 16.582 119.132 16.7432 119.752 16.9292C120.595 17.1772 121.284 17.4252 121.817 17.6733C122.35 17.9213 122.809 18.2933 123.193 18.7893C123.578 19.2854 123.77 19.9364 123.77 20.7425C123.77 21.437 123.59 22.0818 123.231 22.6771C122.871 23.2723 122.344 23.7497 121.649 24.1094C120.955 24.4566 120.13 24.6302 119.175 24.6302ZM135.185 19.1242C135.185 19.4962 135.16 19.831 135.11 20.1287H127.577C127.639 20.8727 127.899 21.4556 128.358 21.8772C128.817 22.2988 129.381 22.5096 130.051 22.5096C131.018 22.5096 131.706 22.0942 132.115 21.2633H134.924C134.627 22.2554 134.056 23.0739 133.213 23.7187C132.37 24.3512 131.334 24.6674 130.107 24.6674C129.114 24.6674 128.222 24.4504 127.428 24.0164C126.647 23.5699 126.033 22.9437 125.586 22.1376C125.152 21.3315 124.935 20.4015 124.935 19.3474C124.935 18.2809 125.152 17.3446 125.586 16.5386C126.02 15.7325 126.628 15.1125 127.409 14.6784C128.191 14.2444 129.09 14.0274 130.107 14.0274C131.086 14.0274 131.96 14.2382 132.729 14.6598C133.511 15.0814 134.112 15.6829 134.534 16.4642C134.968 17.233 135.185 18.1197 135.185 19.1242ZM132.488 18.3801C132.475 17.7105 132.233 17.1772 131.762 16.7804C131.291 16.3712 130.714 16.1665 130.032 16.1665C129.387 16.1665 128.842 16.365 128.395 16.7618C127.961 17.1462 127.695 17.6857 127.595 18.3801H132.488ZM135.993 19.3474C135.993 18.2809 136.21 17.3508 136.644 16.5572C137.078 15.7511 137.68 15.1311 138.449 14.697C139.217 14.2506 140.098 14.0274 141.09 14.0274C142.367 14.0274 143.421 14.3498 144.252 14.9946C145.095 15.6271 145.66 16.52 145.945 17.6733H143.136C142.987 17.2268 142.733 16.8796 142.373 16.6316C142.026 16.3712 141.592 16.2409 141.071 16.2409C140.327 16.2409 139.738 16.5138 139.304 17.0594C138.87 17.5926 138.653 18.3553 138.653 19.3474C138.653 20.3271 138.87 21.0897 139.304 21.6354C139.738 22.1686 140.327 22.4352 141.071 22.4352C142.125 22.4352 142.814 21.964 143.136 21.0215H145.945C145.66 22.1376 145.095 23.0243 144.252 23.6815C143.409 24.3388 142.355 24.6674 141.09 24.6674C140.098 24.6674 139.217 24.4504 138.449 24.0164C137.68 23.5699 137.078 22.9499 136.644 22.1562C136.21 21.3501 135.993 20.4139 135.993 19.3474ZM157.159 14.1948V24.5H154.536V23.1979C154.201 23.6443 153.761 23.9978 153.215 24.2582C152.682 24.5062 152.099 24.6302 151.467 24.6302C150.66 24.6302 149.947 24.4628 149.327 24.128C148.707 23.7807 148.217 23.2785 147.858 22.6213C147.511 21.9516 147.337 21.1579 147.337 20.2403V14.1948H149.941V19.8682C149.941 20.6867 150.146 21.3191 150.555 21.7656C150.964 22.1996 151.522 22.4166 152.229 22.4166C152.948 22.4166 153.513 22.1996 153.922 21.7656C154.331 21.3191 154.536 20.6867 154.536 19.8682V14.1948H157.159ZM161.91 15.7945C162.244 15.2489 162.678 14.821 163.212 14.511C163.757 14.201 164.377 14.046 165.072 14.046V16.7804H164.384C163.565 16.7804 162.945 16.9726 162.523 17.357C162.114 17.7415 161.91 18.4111 161.91 19.366V24.5H159.305V14.1948H161.91V15.7945ZM167.724 12.9671C167.265 12.9671 166.881 12.8245 166.57 12.5392C166.273 12.2416 166.124 11.8758 166.124 11.4418C166.124 11.0077 166.273 10.6481 166.57 10.3629C166.881 10.0652 167.265 9.91644 167.724 9.91644C168.183 9.91644 168.561 10.0652 168.858 10.3629C169.168 10.6481 169.323 11.0077 169.323 11.4418C169.323 11.8758 169.168 12.2416 168.858 12.5392C168.561 12.8245 168.183 12.9671 167.724 12.9671ZM169.007 14.1948V24.5H166.403V14.1948H169.007ZM174.19 16.3339V21.3191C174.19 21.6664 174.27 21.9206 174.431 22.0818C174.605 22.2306 174.89 22.305 175.287 22.305H176.496V24.5H174.859C172.664 24.5 171.567 23.4335 171.567 21.3005V16.3339H170.339V14.1948H171.567V11.6464H174.19V14.1948H176.496V16.3339H174.19ZM187.805 14.1948L181.425 29.3736H178.653L180.885 24.2396L176.756 14.1948H179.676L182.336 21.3936L185.034 14.1948H187.805Z" fill="white"/>
<defs>
<filter id="filter0_d_1_13228" x="5.07348" y="9.54492" width="25.6536" height="23.6746" filterUnits="userSpaceOnUse" color-interpolation-filters="sRGB">
<feFlood flood-opacity="0" result="BackgroundImageFix"/>
<feColorMatrix in="SourceAlpha" type="matrix" values="0 0 0 0 0 0 0 0 0 0 0 0 0 0 0 0 0 0 127 0" result="hardAlpha"/>
<feOffset dy="3.38209"/>
<feGaussianBlur stdDeviation="1.69104"/>
<feComposite in2="hardAlpha" operator="out"/>
<feColorMatrix type="matrix" values="0 0 0 0 0 0 0 0 0 0 0 0 0 0 0 0 0 0 0.25 0"/>
<feBlend mode="normal" in2="BackgroundImageFix" result="effect1_dropShadow_1_13228"/>
<feBlend mode="normal" in="SourceGraphic" in2="effect1_dropShadow_1_13228" result="shape"/>
</filter>
<linearGradient id="paint0_linear_1_13228" x1="23.5375" y1="12.8269" x2="23.4254" y2="29.9114" gradientUnits="userSpaceOnUse">
<stop stop-color="#2965FF"/>
<stop offset="0.372" stop-color="#2965FF" stop-opacity="0.905"/>
<stop offset="0.675" stop-color="#2965FF" stop-opacity="0.608"/>
<stop offset="0.953" stop-color="#2965FF" stop-opacity="0.108"/>
<stop offset="1" stop-color="#2965FF" stop-opacity="0"/>
</linearGradient>
<linearGradient id="paint1_linear_1_13228" x1="12.2631" y1="23.1733" x2="12.3751" y2="6.08887" gradientUnits="userSpaceOnUse">
<stop stop-color="#2965FF"/>
<stop offset="0.372" stop-color="#2965FF" stop-opacity="0.905"/>
<stop offset="0.675" stop-color="#2965FF" stop-opacity="0.608"/>
<stop offset="0.953" stop-color="#2965FF" stop-opacity="0.108"/>
<stop offset="1" stop-color="#2965FF" stop-opacity="0"/>
</linearGradient>
<clipPath id="clip0_1_13228">
<rect width="35.5119" height="35.5119" fill="white" transform="translate(0 0.244141)"/>
</clipPath>
</defs>
</svg>
