<svg width="32" height="32" viewBox="0 0 32 32" fill="none" xmlns="http://www.w3.org/2000/svg">
<path d="M21.9303 27.7117L20.8791 26.0605C18.8977 27.0233 16.6233 27.4047 14.3256 27.0559C13.1722 27.7954 12.0373 28.4652 10.9303 29.0559C10.1303 29.4838 9.3582 29.8605 8.61401 30.1908C10.8233 31.3489 13.3349 32.0001 16.0001 32.0001C18.4605 32.0001 20.7908 31.4419 22.8745 30.4512L21.814 28.7629C21.6001 28.4233 21.6605 27.9861 21.9303 27.7117Z" fill="#6B55FD"/>
<path d="M31.2605 11.186C30.1675 12.8139 28.7814 14.5302 27.1814 16.2698C27.1582 17.1395 27.0373 18.0186 26.8001 18.8977C26.0838 21.5674 24.4605 23.7535 22.3442 25.2093L23.3582 26.7953C23.7442 26.6046 24.2187 26.7349 24.4512 27.107L25.5396 28.8418C29.4605 25.9256 32.0001 21.2605 32.0001 16C32.0001 14.3209 31.7396 12.707 31.2605 11.186Z" fill="#6B55FD"/>
<path d="M19.8093 20.5349C22.5721 18.2186 24.9861 15.8326 26.9209 13.5814C28.3395 11.9302 29.5023 10.3535 30.3535 8.92094C31.9581 6.23257 32.4698 4.07443 31.5349 2.9628C31.0977 2.44187 30.3721 2.19071 29.4233 2.19071C28.6512 2.19071 27.7256 2.3535 26.6837 2.66978C26.8605 2.64652 27.0279 2.63722 27.1861 2.63722C27.7674 2.63722 28.2 2.78606 28.4651 3.09769C28.9023 3.61862 28.8047 4.5349 28.2698 5.73024C27.7954 5.1628 27.2837 4.63257 26.7349 4.1349C23.8977 1.5628 20.1302 -0.00463867 15.9954 -0.00463867C7.1628 1.2491e-05 6.86354e-06 7.1628 6.86354e-06 16C6.86354e-06 19.1302 0.897681 22.0465 2.45117 24.5163C2.84652 25.1442 3.28373 25.7395 3.75815 26.3023C3.25117 26.4326 2.79536 26.4977 2.40931 26.4977C1.82791 26.4977 1.39536 26.3488 1.13024 26.0372C0.800007 25.6419 0.7721 25.014 1.01861 24.2093C-0.0744118 26.3721 -0.334877 28.0884 0.465123 29.0372C0.902332 29.5582 1.62791 29.8093 2.57675 29.8093C3.64187 29.8093 4.99536 29.4977 6.54419 28.907C8.10233 28.3163 9.85582 27.4465 11.7256 26.3349C14.2791 24.8186 17.0465 22.8512 19.8093 20.5349ZM7.08373 22.7535C5.07443 20.0977 4.26977 16.5721 5.19536 13.107C6.79536 7.13955 12.9256 3.60001 18.893 5.20001C21.0047 5.76745 22.814 6.90234 24.1954 8.39536C24.6605 8.89769 25.0744 9.43722 25.4372 10.0093C23.4791 12.4093 20.7488 15.1489 17.5395 17.8419C14.3302 20.5349 11.1581 22.7442 8.45117 24.2605C7.9535 23.8 7.49303 23.293 7.08373 22.7535Z" fill="#6B55FD"/>
</svg>
