<svg width="105" height="24" viewBox="0 0 105 24" fill="none" xmlns="http://www.w3.org/2000/svg">
<path d="M16.4483 20.7857L15.6599 19.5473C14.1739 20.2694 12.468 20.5555 10.7448 20.2939C9.87966 20.8485 9.0285 21.3508 8.19827 21.7939C7.59827 22.1148 7.0192 22.3973 6.46106 22.645C8.11804 23.5136 10.0018 24.002 12.0006 24.002C13.8459 24.002 15.5936 23.5834 17.1564 22.8404L16.3611 21.5741C16.2006 21.3194 16.2459 20.9915 16.4483 20.7857Z" fill="white"/>
<path d="M23.4459 8.39154C22.6262 9.61247 21.5866 10.8997 20.3866 12.2043C20.3692 12.8567 20.2785 13.516 20.1006 14.1753C19.5634 16.1776 18.3459 17.8171 16.7587 18.909L17.5192 20.0985C17.8087 19.9555 18.1645 20.0532 18.339 20.3322L19.1552 21.6334C22.0959 19.4462 24.0006 15.9474 24.0006 12.002C24.0006 10.7427 23.8052 9.53224 23.4459 8.39154Z" fill="white"/>
<path d="M14.8575 15.4032C16.9296 13.6659 18.7401 11.8764 20.1912 10.188C21.2552 8.94967 22.1273 7.76711 22.7657 6.69269C23.9691 4.67641 24.3529 3.05781 23.6517 2.22409C23.3238 1.83339 22.7796 1.64502 22.068 1.64502C21.4889 1.64502 20.7947 1.76711 20.0133 2.00432C20.1459 1.98688 20.2715 1.9799 20.3901 1.9799C20.8261 1.9799 21.1505 2.09153 21.3494 2.32525C21.6773 2.71595 21.604 3.40316 21.2029 4.29967C20.847 3.87409 20.4633 3.47641 20.0517 3.10316C17.9238 1.17409 15.0982 -0.00149536 11.9971 -0.00149536C5.37263 0.00199301 0.000539205 5.37409 0.000539205 12.002C0.000539205 14.3497 0.673795 16.5369 1.83891 18.3892C2.13542 18.8601 2.46333 19.3066 2.81914 19.7287C2.43891 19.8264 2.09705 19.8752 1.80752 19.8752C1.37147 19.8752 1.04705 19.7636 0.848214 19.5299C0.600539 19.2334 0.579609 18.7625 0.764493 18.159C-0.0552748 19.7811 -0.250624 21.0683 0.349376 21.7799C0.677283 22.1706 1.22147 22.359 1.9331 22.359C2.73193 22.359 3.74705 22.1252 4.90868 21.6822C6.07728 21.2392 7.3924 20.5869 8.79473 19.7532C10.7098 18.6159 12.7854 17.1404 14.8575 15.4032ZM5.31333 17.0671C3.80635 15.0752 3.20286 12.4311 3.89705 9.83222C5.09705 5.35664 9.69473 2.70199 14.1703 3.90199C15.754 4.32757 17.111 5.17874 18.1471 6.2985C18.4959 6.67525 18.8064 7.0799 19.0784 7.50897C17.6098 9.30897 15.5622 11.3636 13.1552 13.3834C10.7482 15.4032 8.36914 17.0601 6.33891 18.1973C5.96566 17.852 5.62031 17.4718 5.31333 17.0671Z" fill="white"/>
<path d="M6.15047 13.5678C4.20047 10.5574 6.84814 5.96319 10.4342 6.15156C7.72023 7.85389 6.26209 10.3655 6.15047 13.5678Z" fill="white"/>
<path d="M31.3399 21.1578V5.77405H42.6457V8.46009H34.469V11.7496H42.0004V14.4601H34.469V18.4229H43.019V21.1578H31.3399Z" fill="white"/>
<path d="M50.8713 21.1578L48.8794 17.7287L46.9329 21.1578H43.319L47.1422 15.3426L43.4341 9.75777H47.0725L48.9945 13.0717L50.9411 9.75777H54.4399L50.662 15.3426L54.555 21.1578H50.8713Z" fill="white"/>
<path d="M53.5364 15.4577C53.5364 11.8437 55.7829 9.45767 59.3969 9.45767C62.9655 9.45767 65.1911 11.8228 65.1911 15.4577C65.1911 19.0716 62.9446 21.4577 59.3969 21.4577C55.7167 21.4612 53.5364 19.0053 53.5364 15.4577ZM62.1562 15.4577C62.1562 13.1414 61.2283 12.0042 59.4004 12.0042C57.5725 12.0042 56.6446 13.1379 56.6446 15.4577C56.6446 17.774 57.5725 18.9321 59.4004 18.9321C61.2283 18.9321 62.1562 17.7774 62.1562 15.4577Z" fill="white"/>
<path d="M74.2992 21.1578L74.2748 19.7659C73.5562 20.9241 72.4922 21.4578 71.1004 21.4578C68.2259 21.4578 66.1643 19.1868 66.1643 15.3392C66.1643 11.8857 67.9015 9.45429 70.8457 9.45429C72.2585 9.45429 73.3713 10.0334 74.2294 11.2368V5.58917H77.1945V21.1613H74.2992V21.1578ZM74.3445 15.7368C74.3445 13.2566 73.4864 12.0287 71.819 12.0287C70.0573 12.0287 69.2236 13.2113 69.2236 15.552C69.2236 17.5927 70.2911 19.0054 71.7945 19.0054C73.2318 19.0054 74.3445 17.6589 74.3445 15.7368Z" fill="white"/>
<path d="M78.7015 8.39382V5.58917H81.712V8.39382H78.7015ZM78.7015 21.1578V9.75778H81.712V21.1578H78.7015Z" fill="white"/>
<path d="M90.3318 21.1577C90.2376 20.8786 90.1713 20.4844 90.1469 20.1391C89.4283 20.9274 88.2248 21.4612 86.6934 21.4612C84.0981 21.4612 82.8946 20.1879 82.8946 18.3321C82.8946 15.0426 85.0958 14.6728 88.1306 14.2542C89.6376 14.0449 90.0527 13.7449 90.0527 12.9565C90.0527 12.2135 89.3097 11.774 88.1306 11.774C86.7632 11.774 86.2085 12.4472 86.069 13.4658H83.2644C83.3097 11.1007 84.6074 9.45767 88.2702 9.45767C91.8841 9.45767 93.1364 11.0798 93.1364 13.9542V21.1612H90.3318V21.1577ZM90.1225 15.5763C89.8225 15.8763 89.2888 16.0402 88.176 16.2495C86.4597 16.574 85.9051 17.0588 85.9051 18.0321C85.9051 18.8902 86.4144 19.3053 87.3632 19.3053C88.9155 19.3053 90.0737 18.1716 90.0981 16.8251L90.1225 15.5763Z" fill="white"/>
<path d="M101.432 13.2114C101.271 12.0986 100.668 11.7044 99.3004 11.7044C98.1667 11.7044 97.5178 11.9835 97.5178 12.6532C97.5178 13.3265 98.1422 13.6021 99.3701 13.9509C100.668 14.3207 101.896 14.5753 102.775 14.9242C103.978 15.409 104.652 16.1974 104.652 17.68C104.652 20.0451 102.914 21.4579 99.6701 21.4579C96.1713 21.4579 94.2248 19.8114 94.1794 17.4951H97.2841C97.2841 18.5625 98.1876 19.187 99.6457 19.187C100.713 19.187 101.662 18.8625 101.662 18.0044C101.662 17.1951 100.804 16.9369 99.8306 16.7067C97.9085 16.2428 96.8411 15.9183 96.0318 15.409C94.9643 14.7358 94.5946 13.8567 94.5946 12.8381C94.5946 10.916 95.9166 9.45439 99.3911 9.45439C102.681 9.45439 104.163 10.7521 104.327 13.2079H101.432V13.2114Z" fill="white"/>
</svg>
