<svg width="14" height="16" viewBox="0 0 14 16" fill="none" xmlns="http://www.w3.org/2000/svg">
<path d="M13.3333 6.66665H1.33331M13.3333 8.33331V5.86665C13.3333 4.74654 13.3333 4.18649 13.1153 3.75867C12.9236 3.38234 12.6176 3.07638 12.2413 2.88463C11.8135 2.66665 11.2534 2.66665 10.1333 2.66665H4.53331C3.41321 2.66665 2.85316 2.66665 2.42533 2.88463C2.04901 3.07638 1.74305 3.38234 1.5513 3.75867C1.33331 4.18649 1.33331 4.74654 1.33331 5.86665V11.4666C1.33331 12.5868 1.33331 13.1468 1.5513 13.5746C1.74305 13.951 2.04901 14.2569 2.42533 14.4487C2.85316 14.6666 3.41321 14.6666 4.53331 14.6666H7.33331M9.99998 1.33331V3.99998M4.66665 1.33331V3.99998M8.99998 12.6666L10.3333 14L13.3333 11" stroke="#16132F" stroke-width="1.33333" stroke-linecap="round" stroke-linejoin="round"/>
</svg>
