<svg width="51" height="50" viewBox="0 0 51 50" fill="none" xmlns="http://www.w3.org/2000/svg">
<path d="M34.5146 43.3003L32.8724 40.7208C29.7769 42.2249 26.2237 42.8208 22.6341 42.2758C20.832 43.4311 19.059 44.4775 17.3296 45.4003C16.0798 46.0688 14.8736 46.6574 13.7109 47.1733C17.1625 48.9826 21.0863 49.9999 25.25 49.9999C29.0939 49.9999 32.7343 49.128 35.9897 47.5802L34.3329 44.9425C33.9987 44.4121 34.0931 43.729 34.5146 43.3003Z" fill="#6B55FD"/>
<path d="M49.0908 17.4829C47.3832 20.0261 45.2178 22.7074 42.7182 25.4251C42.6818 26.7839 42.4929 28.1572 42.1223 29.5306C41.0033 33.7015 38.4673 37.1167 35.1611 39.3911L36.7452 41.8689C37.3483 41.571 38.0895 41.7744 38.4528 42.3558L40.1531 45.0661C46.2787 40.5101 50.2462 33.2219 50.2462 25.0036C50.2462 22.3805 49.8392 19.859 49.0908 17.4829Z" fill="#6B55FD"/>
<path d="M31.2008 32.0884C35.5171 28.4697 39.2883 24.742 42.3111 21.2251C44.5274 18.6455 46.344 16.1822 47.6737 13.9442C50.1806 9.74422 50.9799 6.37262 49.5194 4.63595C48.8364 3.82212 47.7028 3.42973 46.2205 3.42973C45.0142 3.42973 43.5682 3.68406 41.9406 4.17817C42.2167 4.14184 42.4783 4.12731 42.7253 4.12731C43.6336 4.12731 44.3094 4.35983 44.7236 4.84668C45.4066 5.66051 45.254 7.09199 44.4184 8.95945C43.6772 8.07295 42.8779 7.24459 42.0205 6.46708C37.588 2.44877 31.7022 0 25.2424 0C11.4435 0.00726639 0.25331 11.1975 0.25331 25.0036C0.25331 29.8939 1.65572 34.4499 4.0827 38.3084C4.70034 39.2893 5.38338 40.2194 6.12455 41.0987C5.33251 41.3021 4.62041 41.4039 4.0173 41.4039C3.109 41.4039 2.43323 41.1713 2.01904 40.6845C1.50313 40.0668 1.45953 39.0859 1.84465 37.8288C0.137048 41.2077 -0.26987 43.889 0.979949 45.3713C1.66299 46.1851 2.79655 46.5775 4.27889 46.5775C5.94289 46.5775 8.05741 46.0907 10.4771 45.1679C12.9114 44.245 15.6508 42.8862 18.5719 41.1495C22.5611 38.7807 26.8846 35.707 31.2008 32.0884ZM11.32 35.5544C8.18094 31.4053 6.92385 25.8974 8.36986 20.4839C10.8695 11.1612 20.4466 5.63145 29.7694 8.13109C33.0683 9.01758 35.8949 10.7906 38.0531 13.1231C38.7797 13.9079 39.4264 14.7508 39.9932 15.6445C36.934 19.394 32.6687 23.6739 27.6549 27.8811C22.641 32.0884 17.6854 35.5399 13.4563 37.9087C12.6788 37.1894 11.9595 36.3973 11.32 35.5544Z" fill="#6B55FD"/>
<path d="M13.0639 28.2662C9.002 21.9953 14.5172 12.4255 21.987 12.8178C16.3338 16.3638 13.2964 21.5956 13.0639 28.2662Z" fill="#6B55FD"/>
</svg>
