<svg width="14" height="14" viewBox="0 0 14 14" fill="none" xmlns="http://www.w3.org/2000/svg">
<path d="M13.3333 5L13.3333 1M13.3333 1H9.33331M13.3333 1L7.99998 6.33333M5.99998 2.33333H4.53331C3.41321 2.33333 2.85316 2.33333 2.42533 2.55132C2.04901 2.74307 1.74305 3.04903 1.5513 3.42535C1.33331 3.85318 1.33331 4.41323 1.33331 5.53333V9.8C1.33331 10.9201 1.33331 11.4802 1.5513 11.908C1.74305 12.2843 2.04901 12.5903 2.42533 12.782C2.85316 13 3.41321 13 4.53331 13H8.79998C9.92008 13 10.4801 13 10.908 12.782C11.2843 12.5903 11.5902 12.2843 11.782 11.908C12 11.4802 12 10.9201 12 9.8V8.33333" stroke="#6F6C7C" stroke-width="1.33333" stroke-linecap="round" stroke-linejoin="round"/>
</svg>
