<svg width="23" height="22" viewBox="0 0 23 22" fill="none" xmlns="http://www.w3.org/2000/svg">
<path d="M9.2502 12C9.67965 12.5742 10.2276 13.0492 10.8567 13.393C11.4859 13.7367 12.1817 13.9411 12.8968 13.9924C13.612 14.0436 14.3298 13.9404 15.0015 13.6898C15.6733 13.4392 16.2833 13.0471 16.7902 12.54L19.7902 9.54003C20.701 8.59702 21.205 7.334 21.1936 6.02302C21.1822 4.71204 20.6563 3.45797 19.7293 2.53093C18.8023 1.60389 17.5482 1.07805 16.2372 1.06666C14.9262 1.05526 13.6632 1.55924 12.7202 2.47003L11.0002 4.18003M13.2502 10C12.8207 9.4259 12.2728 8.95084 11.6436 8.60709C11.0145 8.26333 10.3187 8.05891 9.60355 8.00769C8.88841 7.95648 8.17061 8.05966 7.49885 8.31025C6.8271 8.56083 6.21709 8.95296 5.7102 9.46003L2.7102 12.46C1.79941 13.403 1.29544 14.666 1.30683 15.977C1.31822 17.288 1.84407 18.5421 2.77111 19.4691C3.69815 20.3962 4.95221 20.922 6.26319 20.9334C7.57418 20.9448 8.83719 20.4408 9.7802 19.53L11.4902 17.82" stroke="#16132F" stroke-width="2" stroke-linecap="round" stroke-linejoin="round"/>
</svg>
