<svg width="57" height="56" viewBox="0 0 57 56" fill="none" xmlns="http://www.w3.org/2000/svg">
<rect x="0.333313" width="56" height="56" rx="8" fill="#F4F2FF"/>
<path d="M31.3333 37V31.6C31.3333 31.0399 31.3333 30.7599 31.2243 30.546C31.1284 30.3578 30.9755 30.2049 30.7873 30.109C30.5734 30 30.2934 30 29.7333 30H26.9333C26.3733 30 26.0932 30 25.8793 30.109C25.6912 30.2049 25.5382 30.3578 25.4423 30.546C25.3333 30.7599 25.3333 31.0399 25.3333 31.6V37M19.3333 23C19.3333 24.6569 20.6765 26 22.3333 26C23.9902 26 25.3333 24.6569 25.3333 23C25.3333 24.6569 26.6765 26 28.3333 26C29.9902 26 31.3333 24.6569 31.3333 23C31.3333 24.6569 32.6765 26 34.3333 26C35.9902 26 37.3333 24.6569 37.3333 23M22.5333 37H34.1333C35.2534 37 35.8135 37 36.2413 36.782C36.6176 36.5903 36.9236 36.2843 37.1153 35.908C37.3333 35.4802 37.3333 34.9201 37.3333 33.8V22.2C37.3333 21.0799 37.3333 20.5198 37.1153 20.092C36.9236 19.7157 36.6176 19.4097 36.2413 19.218C35.8135 19 35.2534 19 34.1333 19H22.5333C21.4132 19 20.8532 19 20.4253 19.218C20.049 19.4097 19.743 19.7157 19.5513 20.092C19.3333 20.5198 19.3333 21.0799 19.3333 22.2V33.8C19.3333 34.9201 19.3333 35.4802 19.5513 35.908C19.743 36.2843 20.049 36.5903 20.4253 36.782C20.8532 37 21.4132 37 22.5333 37Z" stroke="#6B55FD" stroke-width="2" stroke-linecap="round" stroke-linejoin="round"/>
</svg>
