<svg width="56" height="56" viewBox="0 0 56 56" fill="none" xmlns="http://www.w3.org/2000/svg">
<rect width="56" height="56" rx="8" fill="#F2FDFF"/>
<path d="M36.5 23.2777L28 28M28 28L19.5 23.2777M28 28L28 37.5M37 28V23.9414C37 23.5988 37 23.4275 36.9495 23.2747C36.9049 23.1395 36.8318 23.0154 36.7354 22.9107C36.6263 22.7924 36.4766 22.7092 36.177 22.5428L28.777 18.4317C28.4934 18.2741 28.3516 18.1953 28.2015 18.1645C28.0685 18.1371 27.9315 18.1371 27.7986 18.1645C27.6484 18.1953 27.5066 18.2741 27.223 18.4317L19.823 22.5428C19.5234 22.7092 19.3737 22.7924 19.2646 22.9107C19.1682 23.0154 19.0951 23.1395 19.0505 23.2747C19 23.4275 19 23.5988 19 23.9414V32.0585C19 32.4012 19 32.5725 19.0505 32.7253C19.0951 32.8605 19.1682 32.9846 19.2646 33.0893C19.3737 33.2076 19.5235 33.2908 19.823 33.4572L27.223 37.5683C27.5066 37.7259 27.6484 37.8046 27.7986 37.8355C27.9315 37.8629 28.0685 37.8629 28.2015 37.8355C28.3516 37.8046 28.4934 37.7259 28.777 37.5683L29 37.4444M23.5 20.5L32.5 25.5M38 37.5L37 36.5M38 34C38 35.6568 36.6569 37 35 37C33.3431 37 32 35.6568 32 34C32 32.3431 33.3431 31 35 31C36.6569 31 38 32.3431 38 34Z" stroke="#3575B6" stroke-width="2" stroke-linecap="round" stroke-linejoin="round"/>
</svg>
