<svg width="57" height="56" viewBox="0 0 57 56" fill="none" xmlns="http://www.w3.org/2000/svg">
<rect x="0.666656" width="56" height="56" rx="8" fill="#F4F2FF"/>
<path d="M37.1666 23.2778L28.6666 28M28.6666 28L20.1666 23.2778M28.6666 28L28.6667 37.5M37.6667 32.0586V23.9415C37.6667 23.5988 37.6667 23.4275 37.6162 23.2747C37.5715 23.1395 37.4985 23.0154 37.402 22.9108C37.293 22.7924 37.1432 22.7092 36.8437 22.5428L29.4437 18.4317C29.1601 18.2741 29.0183 18.1954 28.8681 18.1645C28.7352 18.1371 28.5981 18.1371 28.4652 18.1645C28.315 18.1954 28.1732 18.2741 27.8896 18.4317L20.4896 22.5428C20.1901 22.7092 20.0403 22.7924 19.9313 22.9108C19.8348 23.0154 19.7618 23.1395 19.7171 23.2747C19.6667 23.4275 19.6667 23.5988 19.6667 23.9415V32.0586C19.6667 32.4012 19.6667 32.5725 19.7171 32.7253C19.7618 32.8605 19.8348 32.9846 19.9313 33.0893C20.0403 33.2076 20.1901 33.2908 20.4896 33.4572L27.8896 37.5683C28.1732 37.7259 28.315 37.8047 28.4652 37.8356C28.5981 37.8629 28.7352 37.8629 28.8681 37.8356C29.0183 37.8047 29.1601 37.7259 29.4437 37.5683L36.8437 33.4572C37.1432 33.2908 37.293 33.2076 37.402 33.0893C37.4985 32.9846 37.5715 32.8605 37.6162 32.7253C37.6667 32.5725 37.6667 32.4012 37.6667 32.0586Z" stroke="#6B55FD" stroke-width="2" stroke-linecap="round" stroke-linejoin="round"/>
<path d="M33.1667 25.5L24.1667 20.5" stroke="#6B55FD" stroke-width="2" stroke-linecap="round" stroke-linejoin="round"/>
</svg>
