<svg width="21" height="22" viewBox="0 0 21 22" fill="none" xmlns="http://www.w3.org/2000/svg">
<path d="M18.8332 6.27774L10.3332 11M10.3332 11L1.83322 6.27774M10.3332 11L10.3333 20.5M19.3333 15.0585V6.94144C19.3333 6.5988 19.3333 6.42747 19.2828 6.27468C19.2381 6.1395 19.1651 6.01542 19.0686 5.91073C18.9596 5.79239 18.8098 5.70919 18.5103 5.54279L11.1103 1.43168C10.8267 1.27412 10.6849 1.19534 10.5347 1.16445C10.4018 1.13712 10.2647 1.13712 10.1318 1.16445C9.98163 1.19534 9.83983 1.27412 9.55622 1.43168L2.15622 5.54279C1.8567 5.70919 1.70694 5.79239 1.59789 5.91073C1.50141 6.01542 1.4284 6.1395 1.38374 6.27468C1.33325 6.42748 1.33325 6.5988 1.33325 6.94144V15.0585C1.33325 15.4012 1.33325 15.5725 1.38374 15.7253C1.4284 15.8605 1.50141 15.9846 1.59789 16.0893C1.70694 16.2076 1.8567 16.2908 2.15622 16.4572L9.55622 20.5683C9.83983 20.7259 9.98163 20.8046 10.1318 20.8355C10.2647 20.8629 10.4018 20.8629 10.5347 20.8355C10.6849 20.8046 10.8267 20.7259 11.1103 20.5683L18.5103 16.4572C18.8098 16.2908 18.9596 16.2076 19.0686 16.0893C19.1651 15.9846 19.2381 15.8605 19.2828 15.7253C19.3333 15.5725 19.3333 15.4012 19.3333 15.0585Z" stroke="#B0ADBC" stroke-width="2" stroke-linecap="round" stroke-linejoin="round"/>
</svg>
