<svg width="265" height="132" viewBox="0 0 265 132" fill="none" xmlns="http://www.w3.org/2000/svg">
<g filter="url(#filter0_dd_39_29973)">
<rect x="20.25" y="12" width="92" height="92" rx="16" fill="white" shape-rendering="crispEdges"/>
<path d="M75.5146 76.3003L73.8724 73.7208C70.7769 75.2249 67.2237 75.8208 63.6341 75.2758C61.832 76.4311 60.059 77.4775 58.3296 78.4003C57.0798 79.0688 55.8736 79.6574 54.7109 80.1733C58.1625 81.9826 62.0863 82.9999 66.25 82.9999C70.0939 82.9999 73.7343 82.128 76.9897 80.5802L75.3329 77.9425C74.9987 77.4121 75.0931 76.729 75.5146 76.3003Z" fill="#6B55FD"/>
<path d="M90.0908 50.4829C88.3832 53.0261 86.2178 55.7074 83.7182 58.4251C83.6818 59.7839 83.4929 61.1572 83.1223 62.5306C82.0033 66.7015 79.4673 70.1167 76.1611 72.3911L77.7452 74.8689C78.3483 74.571 79.0895 74.7744 79.4528 75.3558L81.1531 78.0661C87.2787 73.5101 91.2462 66.2219 91.2462 58.0036C91.2462 55.3805 90.8392 52.859 90.0908 50.4829Z" fill="#6B55FD"/>
<path d="M72.2008 65.0884C76.5171 61.4697 80.2883 57.742 83.3112 54.2251C85.5274 51.6455 87.344 49.1822 88.6737 46.9442C91.1806 42.7442 91.98 39.3726 90.5194 37.636C89.8364 36.8221 88.7028 36.4297 87.2205 36.4297C86.0142 36.4297 84.5682 36.6841 82.9406 37.1782C83.2167 37.1418 83.4783 37.1273 83.7253 37.1273C84.6336 37.1273 85.3094 37.3598 85.7236 37.8467C86.4066 38.6605 86.254 40.092 85.4184 41.9595C84.6772 41.073 83.8779 40.2446 83.0205 39.4671C78.588 35.4488 72.7022 33 66.2424 33C52.4435 33.0073 41.2533 44.1975 41.2533 58.0036C41.2533 62.8939 42.6557 67.4499 45.0827 71.3084C45.7003 72.2893 46.3834 73.2194 47.1246 74.0987C46.3325 74.3021 45.6204 74.4039 45.0173 74.4039C44.109 74.4039 43.4332 74.1713 43.019 73.6845C42.5031 73.0668 42.4595 72.0859 42.8446 70.8288C41.137 74.2077 40.7301 76.889 41.9799 78.3713C42.663 79.1851 43.7965 79.5775 45.2789 79.5775C46.9429 79.5775 49.0574 79.0907 51.4771 78.1679C53.9114 77.245 56.6508 75.8862 59.5719 74.1495C63.5611 71.7807 67.8846 68.707 72.2008 65.0884ZM52.32 68.5544C49.1809 64.4053 47.9239 58.8974 49.3699 53.4839C51.8695 44.1612 61.4466 38.6314 70.7694 41.1311C74.0683 42.0176 76.8949 43.7906 79.0531 46.1231C79.7797 46.9079 80.4264 47.7508 80.9932 48.6445C77.934 52.394 73.6687 56.6739 68.6549 60.8811C63.641 65.0884 58.6854 68.5399 54.4563 70.9087C53.6788 70.1894 52.9595 69.3973 52.32 68.5544Z" fill="#6B55FD"/>
<path d="M54.0639 61.2662C50.002 54.9953 55.5172 45.4255 62.987 45.8178C57.3338 49.3638 54.2964 54.5956 54.0639 61.2662Z" fill="#6B55FD"/>
</g>
<g filter="url(#filter1_dd_39_29973)">
<rect x="152.75" y="12" width="92" height="92" rx="16" fill="white" shape-rendering="crispEdges"/>
<path d="M216.029 41.9835C215.993 41.7204 215.763 41.5745 215.572 41.5586C215.383 41.5427 211.674 41.4863 211.674 41.4863C211.674 41.4863 208.572 38.4743 208.266 38.1679C207.96 37.8615 207.361 37.954 207.128 38.0233C207.126 38.0248 206.546 38.204 205.57 38.5061C205.407 37.9771 205.167 37.3267 204.825 36.6734C203.72 34.5661 202.103 33.4518 200.149 33.4489C200.146 33.4489 200.145 33.4489 200.142 33.4489C200.006 33.4489 199.871 33.4619 199.736 33.4735C199.678 33.4041 199.62 33.3362 199.559 33.2697C198.708 32.3591 197.617 31.9154 196.309 31.9545C193.785 32.0267 191.272 33.8493 189.234 37.0868C187.8 39.3646 186.709 42.2263 186.4 44.442C183.502 45.3395 181.476 45.9667 181.431 45.9812C179.968 46.4408 179.922 46.4856 179.731 47.8645C179.589 48.9065 175.762 78.5009 175.762 78.5009L207.835 84.048L221.736 80.5922C221.736 80.5922 216.065 42.2466 216.029 41.9835ZM203.965 39.0033C203.226 39.2316 202.386 39.4918 201.476 39.7736C201.457 38.496 201.305 36.7182 200.71 35.1818C202.625 35.5446 203.567 37.7111 203.965 39.0033ZM199.798 40.2939C198.117 40.8142 196.283 41.3822 194.443 41.9517C194.96 39.9702 195.942 37.9973 197.147 36.7038C197.595 36.2225 198.222 35.6863 198.965 35.3798C199.663 36.8367 199.815 38.8992 199.798 40.2939ZM196.359 33.6339C196.952 33.6209 197.451 33.751 197.877 34.0314C197.195 34.3855 196.536 34.8942 195.917 35.5576C194.314 37.2776 193.086 39.9471 192.596 42.5226C191.068 42.9952 189.574 43.4592 188.198 43.8841C189.066 39.83 192.464 33.7466 196.359 33.6339Z" fill="#95BF47"/>
<path d="M215.574 41.56C215.384 41.5441 211.676 41.4878 211.676 41.4878C211.676 41.4878 208.574 38.4757 208.268 38.1693C208.153 38.0551 207.999 37.9959 207.837 37.9713L207.838 84.0466L221.738 80.5923C221.738 80.5923 216.067 42.248 216.03 41.985C215.994 41.7219 215.763 41.5759 215.574 41.56Z" fill="#5E8E3E"/>
<path d="M200.132 48.7072L198.518 54.7471C198.518 54.7471 196.717 53.9276 194.582 54.062C191.451 54.2601 191.418 56.2343 191.45 56.7301C191.62 59.4314 198.727 60.0211 199.126 66.3487C199.44 71.3263 196.485 74.7315 192.229 75.0003C187.12 75.3226 184.307 72.3091 184.307 72.3091L185.39 67.7044C185.39 67.7044 188.221 69.8406 190.487 69.6975C191.967 69.6035 192.496 68.3996 192.443 67.5483C192.22 64.0246 186.433 64.2327 186.068 58.4428C185.76 53.5707 188.96 48.6335 196.02 48.1883C198.74 48.0134 200.132 48.7072 200.132 48.7072Z" fill="white"/>
</g>
<g filter="url(#filter2_dd_39_29973)">
<rect x="104.25" y="30" width="56" height="56" rx="16" fill="white" shape-rendering="crispEdges"/>
<path d="M130.25 59C130.68 59.5742 131.228 60.0492 131.857 60.393C132.486 60.7367 133.182 60.9411 133.897 60.9924C134.612 61.0436 135.33 60.9404 136.002 60.6898C136.673 60.4392 137.283 60.0471 137.79 59.54L140.79 56.54C141.701 55.597 142.205 54.334 142.194 53.023C142.182 51.712 141.656 50.458 140.729 49.5309C139.802 48.6039 138.548 48.078 137.237 48.0667C135.926 48.0553 134.663 48.5592 133.72 49.47L132 51.18M134.25 57C133.821 56.4259 133.273 55.9508 132.644 55.6071C132.014 55.2633 131.319 55.0589 130.604 55.0077C129.888 54.9565 129.171 55.0597 128.499 55.3102C127.827 55.5608 127.217 55.953 126.71 56.46L123.71 59.46C122.799 60.403 122.295 61.666 122.307 62.977C122.318 64.288 122.844 65.5421 123.771 66.4691C124.698 67.3962 125.952 67.922 127.263 67.9334C128.574 67.9448 129.837 67.4408 130.78 66.53L132.49 64.82" stroke="#16132F" stroke-width="2" stroke-linecap="round" stroke-linejoin="round"/>
</g>
<defs>
<filter id="filter0_dd_39_29973" x="0.25" y="0" width="132" height="132" filterUnits="userSpaceOnUse" color-interpolation-filters="sRGB">
<feFlood flood-opacity="0" result="BackgroundImageFix"/>
<feColorMatrix in="SourceAlpha" type="matrix" values="0 0 0 0 0 0 0 0 0 0 0 0 0 0 0 0 0 0 127 0" result="hardAlpha"/>
<feMorphology radius="4" operator="erode" in="SourceAlpha" result="effect1_dropShadow_39_29973"/>
<feOffset dy="8"/>
<feGaussianBlur stdDeviation="12"/>
<feComposite in2="hardAlpha" operator="out"/>
<feColorMatrix type="matrix" values="0 0 0 0 0 0 0 0 0 0 0 0 0 0 0 0 0 0 0.08 0"/>
<feBlend mode="normal" in2="BackgroundImageFix" result="effect1_dropShadow_39_29973"/>
<feColorMatrix in="SourceAlpha" type="matrix" values="0 0 0 0 0 0 0 0 0 0 0 0 0 0 0 0 0 0 127 0" result="hardAlpha"/>
<feOffset dy="1"/>
<feGaussianBlur stdDeviation="1"/>
<feComposite in2="hardAlpha" operator="out"/>
<feColorMatrix type="matrix" values="0 0 0 0 0 0 0 0 0 0 0 0 0 0 0 0 0 0 0.06 0"/>
<feBlend mode="normal" in2="effect1_dropShadow_39_29973" result="effect2_dropShadow_39_29973"/>
<feBlend mode="normal" in="SourceGraphic" in2="effect2_dropShadow_39_29973" result="shape"/>
</filter>
<filter id="filter1_dd_39_29973" x="132.75" y="0" width="132" height="132" filterUnits="userSpaceOnUse" color-interpolation-filters="sRGB">
<feFlood flood-opacity="0" result="BackgroundImageFix"/>
<feColorMatrix in="SourceAlpha" type="matrix" values="0 0 0 0 0 0 0 0 0 0 0 0 0 0 0 0 0 0 127 0" result="hardAlpha"/>
<feMorphology radius="4" operator="erode" in="SourceAlpha" result="effect1_dropShadow_39_29973"/>
<feOffset dy="8"/>
<feGaussianBlur stdDeviation="12"/>
<feComposite in2="hardAlpha" operator="out"/>
<feColorMatrix type="matrix" values="0 0 0 0 0 0 0 0 0 0 0 0 0 0 0 0 0 0 0.08 0"/>
<feBlend mode="normal" in2="BackgroundImageFix" result="effect1_dropShadow_39_29973"/>
<feColorMatrix in="SourceAlpha" type="matrix" values="0 0 0 0 0 0 0 0 0 0 0 0 0 0 0 0 0 0 127 0" result="hardAlpha"/>
<feOffset dy="1"/>
<feGaussianBlur stdDeviation="1"/>
<feComposite in2="hardAlpha" operator="out"/>
<feColorMatrix type="matrix" values="0 0 0 0 0 0 0 0 0 0 0 0 0 0 0 0 0 0 0.06 0"/>
<feBlend mode="normal" in2="effect1_dropShadow_39_29973" result="effect2_dropShadow_39_29973"/>
<feBlend mode="normal" in="SourceGraphic" in2="effect2_dropShadow_39_29973" result="shape"/>
</filter>
<filter id="filter2_dd_39_29973" x="84.25" y="18" width="96" height="96" filterUnits="userSpaceOnUse" color-interpolation-filters="sRGB">
<feFlood flood-opacity="0" result="BackgroundImageFix"/>
<feColorMatrix in="SourceAlpha" type="matrix" values="0 0 0 0 0 0 0 0 0 0 0 0 0 0 0 0 0 0 127 0" result="hardAlpha"/>
<feMorphology radius="4" operator="erode" in="SourceAlpha" result="effect1_dropShadow_39_29973"/>
<feOffset dy="8"/>
<feGaussianBlur stdDeviation="12"/>
<feComposite in2="hardAlpha" operator="out"/>
<feColorMatrix type="matrix" values="0 0 0 0 0 0 0 0 0 0 0 0 0 0 0 0 0 0 0.08 0"/>
<feBlend mode="normal" in2="BackgroundImageFix" result="effect1_dropShadow_39_29973"/>
<feColorMatrix in="SourceAlpha" type="matrix" values="0 0 0 0 0 0 0 0 0 0 0 0 0 0 0 0 0 0 127 0" result="hardAlpha"/>
<feOffset dy="1"/>
<feGaussianBlur stdDeviation="1"/>
<feComposite in2="hardAlpha" operator="out"/>
<feColorMatrix type="matrix" values="0 0 0 0 0 0 0 0 0 0 0 0 0 0 0 0 0 0 0.06 0"/>
<feBlend mode="normal" in2="effect1_dropShadow_39_29973" result="effect2_dropShadow_39_29973"/>
<feBlend mode="normal" in="SourceGraphic" in2="effect2_dropShadow_39_29973" result="shape"/>
</filter>
</defs>
</svg>
