<svg width="53" height="60" viewBox="0 0 53 60" fill="none" xmlns="http://www.w3.org/2000/svg">
<path d="M46.3758 11.5534C46.3342 11.2504 46.0695 11.0823 45.8498 11.064C45.6318 11.0457 41.3604 10.9808 41.3604 10.9808C41.3604 10.9808 37.7881 7.51175 37.4352 7.15885C37.0824 6.80596 36.3932 6.91249 36.1252 6.99239C36.1219 6.99406 35.4544 7.20047 34.3308 7.54837C34.1427 6.93913 33.8663 6.19005 33.4718 5.43765C32.2001 3.01066 30.3374 1.72725 28.0868 1.72393C28.0835 1.72393 28.0818 1.72393 28.0785 1.72393C27.922 1.72393 27.7672 1.73891 27.6108 1.75222C27.5442 1.67232 27.4776 1.59409 27.4077 1.51751C26.4272 0.468815 25.1705 -0.0422181 23.664 0.00272612C20.7576 0.0859563 17.8629 2.18502 15.5158 5.91373C13.8645 8.53714 12.6077 11.8331 12.2515 14.3849C8.91395 15.4186 6.58017 16.141 6.52857 16.1577C4.84399 16.687 4.79073 16.7386 4.571 18.3267C4.40787 19.5268 0 53.6113 0 53.6113L36.9392 60L52.9493 56.0199C52.9493 56.0199 46.4174 11.8564 46.3758 11.5534ZM32.4814 8.12099C31.6308 8.384 30.6636 8.68363 29.6149 9.00823C29.5933 7.53672 29.4185 5.48926 28.7327 3.71978C30.9383 4.1376 32.0236 6.63284 32.4814 8.12099ZM27.6823 9.60748C25.7464 10.2067 23.634 10.8609 21.515 11.5168C22.1109 9.23461 23.2412 6.96243 24.6295 5.47261C25.1455 4.9183 25.8679 4.30073 26.7235 3.94783C27.5275 5.62575 27.7023 8.00114 27.6823 9.60748ZM23.7222 1.93699C24.4047 1.92201 24.979 2.07183 25.4701 2.39476C24.6844 2.80259 23.9253 3.38853 23.2129 4.15258C21.3668 6.13346 19.9519 9.20798 19.3876 12.1743C17.6281 12.7186 15.9069 13.253 14.3222 13.7424C15.3227 9.07315 19.2361 2.06683 23.7222 1.93699Z" fill="#95BF47"/>
<path d="M45.8515 11.0657C45.6335 11.0474 41.3621 10.9825 41.3621 10.9825C41.3621 10.9825 37.7899 7.51344 37.437 7.16055C37.3055 7.02904 37.1274 6.96079 36.9409 6.9325L36.9426 59.9984L52.9511 56.02C52.9511 56.02 46.4192 11.8581 46.3776 11.5551C46.3359 11.2521 46.0696 11.084 45.8515 11.0657Z" fill="#5E8E3E"/>
<path d="M28.067 19.2972L26.2077 26.2535C26.2077 26.2535 24.1336 25.3097 21.675 25.4645C18.0694 25.6926 18.0311 27.9664 18.0678 28.5374C18.2642 31.6485 26.449 32.3277 26.9085 39.6153C27.2697 45.3482 23.8672 49.27 18.965 49.5796C13.0806 49.9508 9.84131 46.4801 9.84131 46.4801L11.0881 41.1767C11.0881 41.1767 14.349 43.637 16.9591 43.4722C18.6637 43.364 19.2729 41.9774 19.2113 40.9969C18.955 36.9386 12.2899 37.1783 11.8688 30.5099C11.5142 24.8986 15.1997 19.2123 23.3312 18.6996C26.464 18.4982 28.067 19.2972 28.067 19.2972Z" fill="white"/>
</svg>
