<svg width="57" height="56" viewBox="0 0 57 56" fill="none" xmlns="http://www.w3.org/2000/svg">
<rect x="0.666656" width="56" height="56" rx="8" fill="#F2FDFF"/>
<path d="M38.6667 28H34.6667M22.6667 28H18.6667M28.6667 22V18M28.6667 38V34M36.6667 28C36.6667 32.4183 33.0849 36 28.6667 36C24.2484 36 20.6667 32.4183 20.6667 28C20.6667 23.5817 24.2484 20 28.6667 20C33.0849 20 36.6667 23.5817 36.6667 28ZM31.6667 28C31.6667 29.6569 30.3235 31 28.6667 31C27.0098 31 25.6667 29.6569 25.6667 28C25.6667 26.3431 27.0098 25 28.6667 25C30.3235 25 31.6667 26.3431 31.6667 28Z" stroke="#3575B6" stroke-width="2" stroke-linecap="round" stroke-linejoin="round"/>
</svg>
