 <svg width="32" height="32" viewBox="0 0 32 32" fill="none" xmlns="http://www.w3.org/2000/svg">
    <g clipPath="url(#clip0_3_23300)">
    <path d="M16 27.9883C22.5647 27.9883 28 22.5439 28 15.9941C28 9.43263 22.5529 4 15.9882 4C9.43529 4 4 9.43263 4 15.9941C4 22.5439 9.44705 27.9883 16 27.9883Z" fill="gray" fillOpacity="0.06"/>
    <path d="M14.6824 21.7443C14.2824 21.7443 13.953 21.5796 13.6471 21.1681L10.6942 17.5463C10.5177 17.3112 10.4118 17.0525 10.4118 16.782C10.4118 16.2529 10.8236 15.8178 11.353 15.8178C11.6942 15.8178 11.953 15.9236 12.2471 16.3116L14.6353 19.3925L19.6589 11.3259C19.8824 10.9731 20.1883 10.7849 20.4942 10.7849C21.0118 10.7849 21.4942 11.1377 21.4942 11.6903C21.4942 11.9491 21.3412 12.2195 21.2001 12.4665L15.6706 21.1681C15.4236 21.5561 15.0824 21.7443 14.6824 21.7443Z" fill="#2965FF"/>
    </g>
    <defs>
    <clipPath id="clip0_3_23300">
        <rect width="24" height="24" fill="gray" transform="translate(4 4)"/>
    </clipPath>
    </defs>
</svg>