<svg width="16" height="16" viewBox="0 0 16 16" fill="none" xmlns="http://www.w3.org/2000/svg">
<path d="M5 10L8.12693 13.5178C8.56599 14.0117 9.35489 13.9515 9.71391 13.3967L14.5 6" stroke="#3C3C3C"/>
<rect width="16" height="16" rx="8" fill="#FF1F00"/>
<path d="M5.3415 10.5301C5.57923 10.7645 5.99106 10.7544 6.20869 10.5368L7.99998 8.74552L9.78458 10.5335C10.0156 10.7645 10.414 10.7645 10.6484 10.5268C10.8861 10.289 10.8895 9.89061 10.6585 9.65958L8.87387 7.87164L10.6585 6.08704C10.8895 5.85601 10.8861 5.45757 10.6484 5.2232C10.4107 4.98547 10.0156 4.98213 9.78458 5.21315L7.99998 6.99775L6.20869 5.20981C5.99106 4.99217 5.57923 4.98213 5.3415 5.21985C5.10713 5.45757 5.11382 5.86606 5.33481 6.08369L7.1261 7.87164L5.33481 9.66293C5.11382 9.88056 5.10378 10.2924 5.3415 10.5301Z" fill="white" fill-opacity="0.54"/>
<rect x="0.285714" y="0.285714" width="15.4286" height="15.4286" rx="7.71429" stroke="white" stroke-opacity="0.12" stroke-width="0.571429"/>
</svg>
