<svg width="21" height="21" viewBox="0 0 21 21" fill="none" xmlns="http://www.w3.org/2000/svg">
<path d="M10.0421 20.0842C15.5127 20.0842 20.0421 15.545 20.0421 10.0842C20.0421 4.61364 15.5029 0.0842285 10.0323 0.0842285C4.57152 0.0842285 0.0421143 4.61364 0.0421143 10.0842C0.0421143 15.545 4.58132 20.0842 10.0421 20.0842Z" fill="white"/>
<path d="M5.04211 7.08423C5.04211 6.81901 5.14747 6.56466 5.33501 6.37712C5.52254 6.18959 5.7769 6.08423 6.04211 6.08423H14.0421C14.3073 6.08423 14.5617 6.18959 14.7492 6.37712C14.9368 6.56466 15.0421 6.81901 15.0421 7.08423V13.0842C15.0421 13.3494 14.9368 13.6038 14.7492 13.7913C14.5617 13.9789 14.3073 14.0842 14.0421 14.0842H6.04211C5.7769 14.0842 5.52254 13.9789 5.33501 13.7913C5.14747 13.6038 5.04211 13.3494 5.04211 13.0842V7.08423Z" stroke="#2965FF" stroke-linecap="round" stroke-linejoin="round"/>
<path d="M5.04211 8.08423L8.79261 11.0847C9.14726 11.3685 9.58792 11.5231 10.0421 11.5231C10.4963 11.5231 10.937 11.3685 11.2916 11.0847L15.0421 8.08423" stroke="#2965FF" stroke-linecap="round" stroke-linejoin="round"/>
</svg>
