<svg width="18" height="18" viewBox="0 0 18 18" fill="none" xmlns="http://www.w3.org/2000/svg">
<path d="M8.51646 17.4178C9.67721 17.4178 10.7709 17.1932 11.7975 16.7441C12.8241 16.3008 13.7282 15.6883 14.5098 14.9067C15.2914 14.1251 15.9038 13.2239 16.3471 12.2032C16.7904 11.1766 17.0121 10.08 17.0121 8.91341C17.0121 7.75266 16.7875 6.65899 16.3384 5.6324C15.8951 4.60581 15.2826 3.70171 14.501 2.9201C13.7194 2.13849 12.8153 1.52604 11.7887 1.08274C10.7621 0.639436 9.66846 0.417786 8.50771 0.417786C7.34696 0.417786 6.25329 0.639436 5.2267 1.08274C4.20594 1.52604 3.30184 2.13849 2.5144 2.9201C1.73279 3.70171 1.12034 4.60581 0.677036 5.6324C0.233735 6.65899 0.012085 7.75266 0.012085 8.91341C0.012085 10.08 0.233735 11.1766 0.677036 12.2032C1.12617 13.2239 1.74154 14.1251 2.52315 14.9067C3.30476 15.6883 4.20594 16.3008 5.2267 16.7441C6.25329 17.1932 7.34988 17.4178 8.51646 17.4178ZM8.34147 10.6545C7.83401 10.6545 7.58028 10.4183 7.58028 9.94584C7.58028 9.92834 7.58028 9.91084 7.58028 9.89334C7.58028 9.87584 7.58028 9.85834 7.58028 9.84084C7.58028 9.43837 7.67944 9.11173 7.87776 8.86092C8.08191 8.6101 8.33564 8.37678 8.63895 8.16097C9.00642 7.90432 9.28057 7.68559 9.46139 7.50477C9.64221 7.32395 9.73262 7.09354 9.73262 6.81357C9.73262 6.50442 9.6218 6.25652 9.40015 6.06987C9.17849 5.87738 8.88685 5.78114 8.52521 5.78114C8.2569 5.78114 8.01775 5.8453 7.80776 5.97363C7.59778 6.09612 7.41696 6.27985 7.2653 6.52484L7.12531 6.71732C7.04365 6.82232 6.94741 6.90689 6.83658 6.97105C6.73159 7.03522 6.60327 7.0673 6.45161 7.0673C6.29412 7.0673 6.1483 7.01188 6.01414 6.90106C5.88582 6.79023 5.82166 6.63275 5.82166 6.42859C5.82166 6.35277 5.82749 6.27985 5.83916 6.20986C5.85666 6.13403 5.87415 6.06404 5.89165 5.99988C6.02581 5.5974 6.3262 5.25035 6.79284 4.9587C7.2653 4.66706 7.86901 4.52123 8.60395 4.52123C9.09975 4.52123 9.55763 4.60581 9.9776 4.77497C10.4034 4.94412 10.7417 5.19493 10.9925 5.52741C11.2492 5.85405 11.3775 6.25944 11.3775 6.74357C11.3775 7.2452 11.2463 7.64475 10.9838 7.94223C10.7271 8.23388 10.3888 8.51969 9.96885 8.79967C9.68304 8.98632 9.46722 9.16423 9.3214 9.33338C9.17558 9.50253 9.09975 9.70377 9.09392 9.93709C9.08809 9.94875 9.08517 9.96333 9.08517 9.98083C9.08517 9.99833 9.08517 10.0158 9.08517 10.0333C9.07934 10.2083 9.00934 10.3571 8.87518 10.4795C8.74103 10.5962 8.56312 10.6545 8.34147 10.6545ZM8.32397 13.2531C8.05566 13.2531 7.82526 13.1656 7.63277 12.9906C7.44029 12.8098 7.34405 12.5911 7.34405 12.3344C7.34405 12.0778 7.44029 11.859 7.63277 11.6782C7.82526 11.4974 8.05566 11.407 8.32397 11.407C8.59229 11.407 8.81977 11.4974 9.00642 11.6782C9.19891 11.8532 9.29515 12.0719 9.29515 12.3344C9.29515 12.5969 9.19891 12.8156 9.00642 12.9906C8.81394 13.1656 8.58646 13.2531 8.32397 13.2531Z" fill="white"/>
</svg>
