<svg width="25" height="24" viewBox="0 0 25 24" fill="none" xmlns="http://www.w3.org/2000/svg">
<path fill-rule="evenodd" clip-rule="evenodd" d="M12.355 24C18.9824 24 24.355 18.6274 24.355 12C24.355 5.37259 18.9824 0 12.355 0C5.72757 0 0.35498 5.37259 0.35498 12C0.35498 18.6274 5.72757 24 12.355 24Z" fill="#25292E"/>
<path fill-rule="evenodd" clip-rule="evenodd" d="M12.355 24C18.9824 24 24.355 18.6274 24.355 12C24.355 5.37259 18.9824 0 12.355 0C5.72757 0 0.35498 5.37259 0.35498 12C0.35498 18.6274 5.72757 24 12.355 24Z" fill="url(#paint0_linear_1_13160)" fill-opacity="0.3"/>
<path d="M7.375 12.6606L12.355 15.6069L17.334 12.6606L12.355 19.6792L7.375 12.6606Z" fill="url(#paint1_linear_1_13160)"/>
<path d="M12.355 14.5095L7.375 11.5632L12.355 3.71997L17.335 11.5632L12.355 14.5095Z" fill="white"/>
<defs>
<linearGradient id="paint0_linear_1_13160" x1="0.35498" y1="0" x2="12.355" y2="24" gradientUnits="userSpaceOnUse">
<stop stop-color="white"/>
<stop offset="1" stop-color="white" stop-opacity="0"/>
</linearGradient>
<linearGradient id="paint1_linear_1_13160" x1="12.3545" y1="12.6606" x2="12.3545" y2="19.6792" gradientUnits="userSpaceOnUse">
<stop stop-color="white"/>
<stop offset="1" stop-color="white" stop-opacity="0.9"/>
</linearGradient>
</defs>
</svg>
