<svg width="20" height="20" viewBox="0 0 20 20" fill="none" xmlns="http://www.w3.org/2000/svg">
<path d="M2.56331 6.23576L6.13668 8.78813C6.32262 8.92094 6.41559 8.98734 6.51289 9.00264C6.5985 9.01611 6.68618 9.00254 6.76373 8.96383C6.85185 8.91983 6.9204 8.82843 7.0575 8.64563L7.81258 7.63884C7.85135 7.58715 7.87074 7.56131 7.89352 7.53901C7.91375 7.51921 7.93595 7.50153 7.95977 7.48623C7.98659 7.469 8.01611 7.45588 8.07516 7.42963L11.299 5.99682C11.4326 5.93743 11.4994 5.90773 11.5498 5.86135C11.5944 5.82033 11.6295 5.77008 11.6526 5.71411C11.6788 5.65084 11.6837 5.57788 11.6934 5.43196L11.9295 1.89125M11.25 11.2501L13.43 12.1844C13.6829 12.2928 13.8094 12.347 13.8764 12.437C13.9352 12.516 13.9641 12.6132 13.958 12.7115C13.9511 12.8235 13.8747 12.938 13.7221 13.1669L12.6979 14.7032C12.6255 14.8118 12.5894 14.866 12.5416 14.9053C12.4992 14.9401 12.4505 14.9662 12.3981 14.9821C12.3389 15.0001 12.2736 15.0001 12.1432 15.0001H10.4805C10.3077 15.0001 10.2213 15.0001 10.1478 14.9712C10.0829 14.9457 10.0254 14.9042 9.98067 14.8507C9.93 14.7901 9.90268 14.7082 9.84804 14.5442L9.25398 12.7621C9.22175 12.6654 9.20564 12.617 9.2014 12.5679C9.19764 12.5243 9.20075 12.4805 9.21064 12.4379C9.22179 12.3898 9.24457 12.3442 9.29015 12.2531L9.74141 11.3506C9.8331 11.1672 9.87894 11.0755 9.94955 11.0186C10.0118 10.9684 10.0871 10.9372 10.1666 10.9287C10.2568 10.919 10.354 10.9514 10.5485 11.0163L11.25 11.2501ZM18.3333 10.0001C18.3333 14.6025 14.6024 18.3334 9.99999 18.3334C5.39762 18.3334 1.66666 14.6025 1.66666 10.0001C1.66666 5.39771 5.39762 1.66675 9.99999 1.66675C14.6024 1.66675 18.3333 5.39771 18.3333 10.0001Z" stroke="#6B55FD" stroke-width="1.66667" stroke-linecap="round" stroke-linejoin="round"/>
</svg>
